<?xml version="1.0" encoding="UTF-8"?>
<svg xmlns="http://www.w3.org/2000/svg" viewBox="0 0 1065.14 792.94">
  <defs>
    <style>.cls-1{fill:#dd6c26;}</style>
  </defs>
  <title>Asset 2</title>
  <g id="Layer_2" data-name="Layer 2">
    <g id="Layer_1-2" data-name="Layer 1">
      <path class="cls-1" d="M1064.4,367.73a3.08,3.08,0,0,1-1.5,2.85,4.11,4.11,0,0,1-2.4.75,9,9,0,0,1-2.4-.45c-2.9,2.05-7,5-12.45,8.55a149.82,149.82,0,0,0-20.85,15q-6.75,9.45-10.5,14.4a110.73,110.73,0,0,1-14.2,15.55,386.3,386.3,0,0,0-52.2,60q-33.9,46.25-46.35,61a307.6,307.6,0,0,1-49.35,47l-5.35,4.5c2.9-1.5,5.85-3.1,8.95-5A199.59,199.59,0,0,1,921.35,575q33.3-2.25,47.4,20.85a58.25,58.25,0,0,1,8.1,30.6,155.41,155.41,0,0,1-8.85,45q-9,27.62-9,36a42.13,42.13,0,0,0,2.1,8.1,5.66,5.66,0,0,1-.6,1.95h-1.65q-2.7,0-3.9-5.55l-19.35-6.15-16.05-5a18.39,18.39,0,0,1-2.1,0,79.35,79.35,0,0,0-14.1-1.2q-18.45,0-90.25,52.65a195.85,195.85,0,0,1-50,25.65,259.4,259.4,0,0,1-68.21,15H671.64a185.4,185.4,0,0,1-68.25-26.25,228.46,228.46,0,0,1-30-25l-.45-.3q-7.8-3.45-8-9.3c-1.8,1.7-3.75,3.36-5.85,5a104.65,104.65,0,0,1-40.95,20.4,2.58,2.58,0,0,1-2,1h-1.15a176.4,176.4,0,0,1-40,4.2,294.91,294.91,0,0,1-57.25-5.55q-3.3.9-8.25,1.8a244.18,244.18,0,0,1-33.46,3.75H340.08Q274,752.09,244.73,728.39a191.26,191.26,0,0,1-20.55-20.7,156.34,156.34,0,0,0-21-20.56,271.5,271.5,0,0,1-20-20,109,109,0,0,0-26.7-20.65q-21.6-8.25-38.4-15.6-28.95-12.45-31.95-20a8.19,8.19,0,0,0-1.65.75q-.75.9-.75-1a6,6,0,0,1,.75-2.7,14.45,14.45,0,0,1,3.15-3.9,7.58,7.58,0,0,1,1.5-1.65,17,17,0,0,0,6-9.25,41.17,41.17,0,0,1,3.75-17,47.3,47.3,0,0,1,10-16.5q10.8-8.7,41.4-12.15h33.85a23.48,23.48,0,0,1,8.4,1.65q-3.75-3.45-7.35-7A573.06,573.06,0,0,1,131.88,480q-18.9-25.8-31.8-42.9-39-42.6-54.41-73.3-3.3-6.6-25-40.81Q.08,290.47.07,290.32a2.7,2.7,0,0,1,0-1.2h0a3.79,3.79,0,0,0,.9.45,9,9,0,0,1,0-1.8,3.2,3.2,0,0,1,.45-1.65v-.45q0-1.05,1.8-1.35A30.54,30.54,0,0,1,13,279.67a78.93,78.93,0,0,1,8-2.25,601.87,601.87,0,0,1,74.51-10.8v-.45h48.75a248.53,248.53,0,0,1,63.4,10.65q32.85,9,38.1,15.45-.9-8.7-1.8-17.85Q238,210.27,236.23,190q-4.2-8-11.25-20.55Q208.33,140,208.33,133.92a16.18,16.18,0,0,1,.45-5,.49.49,0,0,1,.3-.45q1.5-4.2,11.1-3.15a122.73,122.73,0,0,1,28.35,8.25,96.15,96.15,0,0,1,27,17.25,49.44,49.44,0,0,0,9.55,7A112.83,112.83,0,0,1,296,124.47c4.2-8.9,10.8-21.1,20-36.7,6.8-11.7,10.35-18,10.8-18.9A69.74,69.74,0,0,0,333.68,50a24.47,24.47,0,0,1,1.4-10c1.75-3.9,6-3.25,12.7,1.95a317,317,0,0,1,35,18.3,785.1,785.1,0,0,1,86.61,58q3-6.3,37.8-31L551.59,56q1.8-1.5,8.4-8.25a48.69,48.69,0,0,1,8.4-7.7q8-5,11.1-.45c1.2,1.8,3.35,5.35,6.55,10.65q5,5,15.9,16.35a107.87,107.87,0,0,1,10.95,12.9,76.71,76.71,0,0,1,5.55-5.85q3-3.3,6-6.15,2.25-2.4,4.65-4.65Q657,36.87,672.44,24.87q.6-.45,3.75-3.6l8.9-8.95q2.7-2.85,6.15-6.3Q707.74-7.5,708,9.32a27.16,27.16,0,0,1,1.5,5q1.05,3.3,2.55,7.35c3.3,10,7.55,22.8,12.9,38.7q12.21,37.2,22.45,60.55l7.51,17a44.12,44.12,0,0,1,14.7-11.25A85.15,85.15,0,0,1,801.4,115a386.58,386.58,0,0,0,47.5-10.9,19.94,19.94,0,0,1,10.8-1.2c2.25.8,3.3,3.35,3.3,7.6a120.59,120.59,0,0,1,5,28.2q.3,5.25.3,27.6,0,18.9-.45,25A51.24,51.24,0,0,1,865,205.87a149.57,149.57,0,0,0,14.1-7.2,81.8,81.8,0,0,0,7.8-5.25,6.16,6.16,0,0,1,8.24,2.79l.16.36a53.82,53.82,0,0,0,3.9,8.4,32.27,32.27,0,0,1,3.15,7.35,173.61,173.61,0,0,1,1.8,27,143.52,143.52,0,0,1,15-15.4q21.3-19.35,33.3-14.4a2.62,2.62,0,0,1,.6-.45.49.49,0,0,0,.3.45.58.58,0,0,1,0,.45v.75s-1.8,4-5.4,11.7a161.18,161.18,0,0,0-9.3,28.15,275.22,275.22,0,0,0-5.3,39.5q-.9,12.6-2.25,39.3a82.61,82.61,0,0,1-13.8,38.11q47.1-24.3,70.75-22.51a191.79,191.79,0,0,1,56.4,6,43.88,43.88,0,0,1,15,6.9,5.93,5.93,0,0,1,5.68,6.2,2.69,2.69,0,0,1,0,.4,2.33,2.33,0,0,1-.9,2.1Zm-25,4.2a77.28,77.28,0,0,0-28.5,25.6l-10,17.85-.85,1.65a76.19,76.19,0,0,0,12.85-15.3,168.51,168.51,0,0,1,11.4-15.55,45.22,45.22,0,0,1,8.55-7.8,70.4,70.4,0,0,1,13.35-7.05,34,34,0,0,0,3.3-1.95,43.91,43.91,0,0,0-10.15,2.55Zm-6.75-18.6a165.78,165.78,0,0,0-27.75-3q-12.49,4.5-30,24.15-21.6,27.79-26.1,32.65l-26.55,28.2q-16.65,17.4-29,31.8a420.52,420.52,0,0,1-87.85,74.2q-54.3,36-76.66,36H728c-2.3,3.4-4.7,6.85-7.15,10.35a1.38,1.38,0,0,1,.7,0q31.35,0,98-46.8,24.6-17.4,46.3-35,2.85-3.75,5-6.75,20-25.5,30.75-38.1a276.66,276.66,0,0,1,38.5-37.4q7.95-6.3,22.65-19.35a198.07,198.07,0,0,1,25-18.4c.65-.4,4.6-2.4,11.65-5.85,1-.9,2.05-1.85,3.15-2.7q25-18.45,39.75-21.15a60.6,60.6,0,0,0-9.7-2.85Zm-1006-72.61a78.31,78.31,0,0,0-13,3.9q11.55,1.65,34.05,7.35,38.31,9.75,65,19.2a180.11,180.11,0,0,1,36.45,15,146.94,146.94,0,0,1,21.3,15,138.28,138.28,0,0,1,20.7,13.21,670.8,670.8,0,0,1,59.4,56.8,302.94,302.94,0,0,1,23.1,28.2q16.05,21.75,21.75,28.65a186,186,0,0,0,22.5,21.6q-5.4-5.55-10.35-11.4a294.54,294.54,0,0,1-39.6-51,250,250,0,0,0-45.3-53.8c-8.5-7.4-19.7-16.1-33.7-26.11s-27.45-19-40.35-27a352.33,352.33,0,0,0-50-23.55q-41.7-16.35-64.31-16.35C31.46,280.42,28.92,280.52,26.62,280.72Zm-6,13q7.05,3,24,9.15c9,3.3,14.75,5.55,17.35,6.75a28.89,28.89,0,0,1,13.11,9.15,110,110,0,0,1,23,0,221.73,221.73,0,0,1,42.6,7.8q-14.1-6-32.1-12a926.5,926.5,0,0,0-98.46-25.95A74.26,74.26,0,0,0,20.62,293.77Zm-7.5,4.05q3.9-.9,24.75,15.6,3.9,2.55,13.2,7.8a59.38,59.38,0,0,1,6.6,4.2,3.71,3.71,0,0,1,1.65-2.1V325a6.72,6.72,0,0,1,1.45-1.65l-.7-.65.85.3.6-.6q1.5-1.2,2.55-.75a22.72,22.72,0,0,1,6.76-2.25L35.62,305q-11.25-3.6-18.45-6.45a57.14,57.14,0,0,1-9.75-5,62.31,62.31,0,0,1,5.4,5h0v-1.05Zm26.4,36.3a63.65,63.65,0,0,1,9.6,7.95c7.25,3.8,17.56,10,30.71,18.31,2.3,1.6,4.6,3.26,6.9,5l-1.35-1.65q-4-4.2-7.35-8c-14.31-8.51-21.41-16.31-21.41-23.41a19.22,19.22,0,0,1,0-2.4A160.85,160.85,0,0,1,34,315.72q-13.2-9.3-18.15-13.5a147.46,147.46,0,0,1,16.65,24.3l2.85,5C36.64,332.26,38,333.12,39.52,334.12ZM52,350.48a212.67,212.67,0,0,1,20.36,16.95l24,21.9q2.25,1.55,26.7,17.35l-20-22.3-26.55-18q-16.07-11-28.76-20ZM702.89,6.77l-.3-.6-1.8,1.5q-3.9,6.75-7.2,13.8a329,329,0,0,0-26.7,81.15q-5.7,28.39-12.45,100.6-1.5,15.9-3.45,50t-3.6,50.5q-1.65,17.1-2.4,54.31a99.57,99.57,0,0,1-8.55,35.8,16,16,0,0,1,1.8,3.45,24,24,0,0,1,1.35,5,307.76,307.76,0,0,0,15.75-86.66,1030.12,1030.12,0,0,1,5-104,439.81,439.81,0,0,1,15-104q10.5-34.5,14.4-52.35,3.6-16.8,9-33.6,2.1-6.6,4.35-13A6.86,6.86,0,0,0,702.89,6.77Zm-33.3,36a199.36,199.36,0,0,0-18,40,295.6,295.6,0,0,0-6.5,31.05q-1.5,10.5-4.5,31.05-4.05,25.8-7.35,61.95-1.95,20.85-5,62.35v57.45q-.45,5-.75,16.95-.3,10.81-.9,16.81t-1.2,16.95a43.31,43.31,0,0,1-4.35,15,10,10,0,0,1,1.2,1.05q3.15,3,5.85,6a64.68,64.68,0,0,1,3.75-7.2c-.4-1.2-.7-2.2-.9-2.95a8.56,8.56,0,0,1,1.95,1,35.92,35.92,0,0,0,4.5-14.65q.3-4.35,2.1-25,1.2-8,2-25t1.8-25.35q5-67.35,6.75-100a547.73,547.73,0,0,1,14.25-100,469,469,0,0,1,10.85-51,108.53,108.53,0,0,1,12.45-27.75,83.11,83.11,0,0,1,5.4-7.35Q689,17,685.44,20l-1.8,1.5q-1.5,1.2-3,2.55Zm36.15-22.5-.3,1.2q-2.85,10.5-10.35,35.7-13.35,45.45-16.65,60a709.37,709.37,0,0,0-13.35,102.55c-.7,10.4-1.3,27.4-1.8,51.1q-.75,33.3-2.25,51.45a280.56,280.56,0,0,1-20.95,88.61,7.88,7.88,0,0,1-.3,1.8,9.66,9.66,0,0,1-1.2,1.65l-1.5,3a41,41,0,0,1,.9,8.7v2l.3-.3a38.44,38.44,0,0,0,7.8-10,36.48,36.48,0,0,0,1.35-3.75q.6-2.1,1.2-5a17.57,17.57,0,0,1,2-5.4,735.91,735.91,0,0,0,31.35-192.66q2.25-28.35,13.5-101.55,8.25-53.46,10.65-87.7h0a2.8,2.8,0,0,1-.35-1.35Zm5,19.35q-2.25,18.3-11.1,79.45-12.3,85-13.8,105-3.3,46.11-3.45,47.5a398.34,398.34,0,0,1-7,48q-3.45,16.2-9.75,48.46a174.12,174.12,0,0,1-13.05,36.85,39.23,39.23,0,0,1,1.05,6,34.48,34.48,0,0,1-5.55,13.2A23.75,23.75,0,0,1,637.79,435a103.78,103.78,0,0,1-1.35,11.1q1-1,2.1-2.25a80.68,80.68,0,0,0,10-13.2,113.63,113.63,0,0,0,5-10.95,8.19,8.19,0,0,1,.75-1.65l-1.65.9q1.2-1.35,2.4-2.85a66.51,66.51,0,0,1,2.55-6.45,7.09,7.09,0,0,1,.75,1.2q18.9-32.55,37.65-137.21,18.6-103.1,18.6-146.65V117A42.87,42.87,0,0,0,713,107V57q-.84-9-1.2-13.65Zm6.3,18.6v47.55a38.73,38.73,0,0,1,1.45,10.6v10.8a492.09,492.09,0,0,1-5.4,72.45q-2.19,15.9-13.3,75-15.75,81.9-16.2,84-10.35,40.85-24.75,55.45a73.17,73.17,0,0,1-7.35,20.4q-8.4,18.3-17,19.5a54.54,54.54,0,0,1-2.55,6,158.36,158.36,0,0,0,29.25-20.4l3.75-7.5h-.6a2.1,2.1,0,0,1-.3-1.2l5.4-12.75a145.23,145.23,0,0,0,8.55-24,142.32,142.32,0,0,1,6.15-18.25q7-18.15,7-18.3,8.21-22.26,23.85-72.56,5.85-19.5,9.6-69.4,3.15-41.55,3.15-76.2A105.19,105.19,0,0,0,726.49,124a111.69,111.69,0,0,1-1.35-12.9,246.32,246.32,0,0,0-2.55-24.55c-1.75-12.8-2.65-19.5-2.65-20a6,6,0,0,1,0-1.2c-1.1-2.8-2-5.3-2.8-7.1Zm21.55,53c.9,5,1.85,11,2.85,17.65a356.23,356.23,0,0,1,5,47.1q0,11.7-1.65,35.55-1.65,24.6-1.8,36.45a222.13,222.13,0,0,1-3.75,35.65q-2.1,12.45-7.5,35.85A342.29,342.29,0,0,1,697.19,410a194.94,194.94,0,0,1-16.8,26,13.49,13.49,0,0,1,.45,4.65,17.59,17.59,0,0,1-1.35,7.05,170,170,0,0,0,35-40.8q5.4-8.85,11.25-20.8,11.1-39.45,20-80.26,15-67.8,15-103a212.28,212.28,0,0,0-4-41.55q-2.55-10-3.61-15-5.4-13.8-11.85-29.05c-1.15-2.2-1.75-4.15-2.55-6Zm-5-11.7q-5-12.3-9-21.9,1.65,11,3.75,26.7,4,31,4,35,0,35-3.15,76.95c-2.45,33.45-5.7,56.6-9.6,69.4q-3.6,11.7-11,36.6-6.9,21.6-12.6,36.61-4.5,12-11.25,36.7A117.2,117.2,0,0,1,672,423.13a21.05,21.05,0,0,1,.3,4.2q0,5-10.5,18a.51.51,0,0,0,0,.3,73.1,73.1,0,0,0,22.05-21.9,138.81,138.81,0,0,0,9-17.7,153.4,153.4,0,0,1,9-18.45,156.69,156.69,0,0,0,15-35q6.55-24.31,10-35.86t10-71.7q5.7-56,5.7-69.55,0-8.1-4.65-45.9c-1.95-13.25-3.25-23.3-4.15-30.1ZM567,51l-9.6,17.7A225.35,225.35,0,0,0,539,126.12a343.88,343.88,0,0,0-4,40q-.6,12.9-1.65,38.7a16.89,16.89,0,0,0,0,2.25q3.3-12.75,7.2-23.7a3.51,3.51,0,0,1-.6-1.65,35.08,35.08,0,0,1,0-4.35l1.35-21.15A243.87,243.87,0,0,1,552,92.52a179,179,0,0,1,16.65-43.2A15.6,15.6,0,0,0,567,51Zm9.1-.9c.85,3.9,1.65,9.05,2.45,15.45a247.88,247.88,0,0,1,2.5,27.75,136.22,136.22,0,0,1-.7,14.7,59.43,59.43,0,0,1-2.7,13.45c3.45-4.3,6.7-8.15,9.55-11.5a37.45,37.45,0,0,1-1.3-12.9,79,79,0,0,0-.5-16c-.9-7-1.6-12.3-2.05-15.9a45.43,45.43,0,0,0-2-9.15c-2-2.1-3.7-4-5.25-5.95Zm10,10.8q.9,3.75,1.8,8.55a170.24,170.24,0,0,1,3,30.3v5a10,10,0,0,1,4.65-5.4l5-6.3-10.5-28.7Zm12.3,11.7a83.51,83.51,0,0,1,5.7,16.65q3-3.6,6-6.9L598.14,72Zm-23-7.6q-.75-8.25-1.2-13.5-.6,10.5-4.65,43.35-3.75,30-5.7,43.45a5.48,5.48,0,0,0,.6-.75q5.6-6.8,10.6-12.55v-.9a195.45,195.45,0,0,0,2.55-30.55Q577.39,87,575.44,65Zm-27.3.9a152.32,152.32,0,0,0-21.75,38.25,419.31,419.31,0,0,0-14.55,55,107.14,107.14,0,0,1,18.6,33q-.75-15.45-.75-22.5,0-25.35,11.85-69.55a217,217,0,0,1,14.1-39.75q-3.45,2.79-7.5,5.65Zm17,12q2.25-15.6,4.35-24.3a411,411,0,0,0-26.85,124.75,138.12,138.12,0,0,1,19.65-37.65q-.45-2.85-.75-7.5-.75-7.95-.75-10.95A340,340,0,0,1,565.09,77.87Zm68.2,13.95a109.61,109.61,0,0,0-5.4,23.65q-1,8.1-2.7,23.7-5,39.15-5.55,46.8-2.85,26.85-3.45,47.25v46q0,6.15-.75,18.45v50.7q-.75,5-1.5,22.21-1.05,11.7-4.2,14.25a56.65,56.65,0,0,1,9,5.85V390q4.35-51,4.35-62.66a2.81,2.81,0,0,1,.3-1.5l.45-.75V267.67Q630.59,175,637.49,129q9.45-63.66,31.2-95l-14.1,12q-1.5,3.45-7.65,15.6a252.1,252.1,0,0,0-13.8,30.3ZM604.34,96q.3.75-1.35.75-3.45,3.75-6.6,7.5-14.55,31.7-14.5,119.2,0,30,4,79.15T589.64,365a117.38,117.38,0,0,1-.45,12.15q3.45.75,6.75,1.8a26.71,26.71,0,0,0,1.35-7.35V364q-3.6-91.36-3.6-104.56a985,985,0,0,1,5-98.65q5-49.65,13.65-74.05-3.9,4.05-7.65,8.25a6,6,0,0,0-.5,1Zm11.55,1.8a186.41,186.41,0,0,0-11.55,56.35q-.45,17.55-2.25,42.3-.3,2.1-3.75,42.75v45q0,10.65,1.5,42.3t1.35,37.36v10a21.35,21.35,0,0,1-1.2,6.9,32.71,32.71,0,0,1,5.55,2.2c0-2,.85-7,2.25-15q3.3-18.15,3.6-20.26l.75-115.3q2.25-16.35,3.9-47.1,1.65-32.85,3.45-47.7a202.27,202.27,0,0,1,28.2-85q-11.55,10.5-21.75,20.7-2.85,6.34-10.2,24.5Zm-56.8,58a185.29,185.29,0,0,0-10,19.35q-.9,4.65-2.25,11.85a89.93,89.93,0,0,0-1.5,15q0,1.8-1.5,15a753.14,753.14,0,0,0,6.25,83q6.3,54.15,12.6,73.66a57.27,57.27,0,0,1,8.4.6q-5-13-10-78.16-5-64.2-5-92.5a251.11,251.11,0,0,1,2.1-36.15,95.09,95.09,0,0,1,4.35-17.85q-1.8,3-3.6,6.2Zm-15.6,33.6q-3.45,9-6.15,18.45-.3,2.4-2.25,23.25c-.4,5-1,10-1.65,13.9a521,521,0,0,0,6.65,59.1q1.65,9.6,8.4,41.1,5,23,6,28.36h3.15q-3.75-5.4-6.15-24.75-3-32.56-4.35-44-3.15-23.55-4.5-35.4a323.91,323.91,0,0,1-2.25-35.5q0-23.4.75-31.05a94.72,94.72,0,0,1,2.2-13.5Zm17.4,14q0,2.1,5,66.1t5,68.25a131.29,131.29,0,0,0,2,15.31,138,138,0,0,1,1.8,16.5v5a75.78,75.78,0,0,1,9.7,1.5,9.08,9.08,0,0,1,0-2.85,31.29,31.29,0,0,0,1.55-8.4q-2.21-27.31-4.4-57-4.35-59.4-4.35-84.25a669.9,669.9,0,0,1,4.2-72.75,233.68,233.68,0,0,1,6.15-36.3c-5.8,7.1-11,14.15-15.85,21.15q-.6,3.45-5.4,23.4a213.07,213.07,0,0,0-5.5,44.35ZM756.55,141l2.7,6.3a33,33,0,0,1,11.1-16.5l.3-.3A38.55,38.55,0,0,0,756.4,141Zm4.2,10q3.9,9.6,7,17.85a58.59,58.59,0,0,1,4.65-10,125.47,125.47,0,0,1,15.75-22,89.64,89.64,0,0,1,20.55-17.85c-3.7.7-7,1.45-10,2.1l-9.45,2.4a80.26,80.26,0,0,0-14.25,10,55.92,55.92,0,0,0-14.45,17.75Zm14.55,40q5-13.35,28.5-43.35,21-27,33.3-35-2.55.45-5,1a104.89,104.89,0,0,0-43.05,28.65,192.43,192.43,0,0,0-19.65,30q.9,2.85,1.8,5.4,2,7.31,3.9,13.65Zm-12,36q0,27.6-15.91,94.3-5.25,22.2-10,38.41l4.05-9.15Q753,325.81,762.1,300q16.5-45,16.5-60.4,0-22.65-16.65-70a274.58,274.58,0,0,1,2.4,38.55Zm15.6,40a157.43,157.43,0,0,1,18-27.55A55.94,55.94,0,0,0,783,250.22c-1.05,4.8-2.4,10.6-4.2,17Zm4.35-39.7q1.95-6.45,5-15.75a257.07,257.07,0,0,1,15.6-40.35q6.45-11.1,17.7-35.55a79,79,0,0,1,10.65-14.1,186,186,0,0,0-29.1,32.55q-6.15,8.85-26,43.35a190.34,190.34,0,0,1,6,30.1Zm66.85-116.1A186.24,186.24,0,0,0,809.05,174q-.75,1.5-13.65,35-6,15.75-11.55,27.3v8.25A48,48,0,0,1,798.1,234a205.13,205.13,0,0,0,29.55-62.7A150.2,150.2,0,0,1,833.8,155q5-11.1,7.5-16.8c.8-1.9,2.75-8.15,6-18.75A74.68,74.68,0,0,1,850.1,111.17Zm5-1.7h-.5a3.24,3.24,0,0,0,.35,1.8A6.78,6.78,0,0,1,855.1,109.47Zm7.9,30a146.14,146.14,0,0,0-2.7-19.2c-.35,3.9-1.4,11.65-3.1,23.25q-3.36,22.5-5,29.25A238.65,238.65,0,0,1,845.1,200a65.77,65.77,0,0,1-11.05,18.45l16.8-6.6,9.45-3.75a105.11,105.11,0,0,0,3.25-20.55V165.82c-.1-14.9-.15-23.7-.4-26.2Zm24,60a182,182,0,0,1-34,16.65q-6.11,8.7-13.3,19.5A234.59,234.59,0,0,0,816,278a250.6,250.6,0,0,0-9.3,32.55,170.62,170.62,0,0,1-10,32.1q-10,21.16-30,64.61A207.92,207.92,0,0,1,717.39,470a11.93,11.93,0,0,1-2-.3c-.3,0-.5-.55-.5-1.35a231.74,231.74,0,0,0,28.2-32.7,365,365,0,0,0,50.56-96.76q2.7-7.65,9-32.4a209.28,209.28,0,0,1,10.5-32.85,303.94,303.94,0,0,1,20-38.65,114.75,114.75,0,0,1,10.65-15l-13.65,5q-2.25.75-4.5,1.65a175.86,175.86,0,0,0-30,57.4q-1.8,5.4-9,31.2a303.39,303.39,0,0,1-10,31.05q-42.32,105.81-67.46,121.31a26,26,0,0,1,14.7,10.95A184.21,184.21,0,0,0,741.39,460a299.27,299.27,0,0,0,36.46-55,608.3,608.3,0,0,0,32.25-72.86q8.25-24.15,12.75-36.75a239.91,239.91,0,0,1,16.2-36.6q7.65-13.2,11-18.15a100.4,100.4,0,0,1,15.55-18.25q17-15.3,19.05-16.95a38.92,38.92,0,0,0,2.7-4.35,7.56,7.56,0,0,0-.15-1.5ZM831.25,175a211.84,211.84,0,0,1-11.55,31.35,99.61,99.61,0,0,1-16.8,25,176.27,176.27,0,0,1,20-8.55l6.6-2.4a155.09,155.09,0,0,0,20-55q3.15-31.65,5-51.15a252.66,252.66,0,0,1-11,30.45Q838,158.82,831.25,175ZM799.6,238c0,.6-3.9,8-11.7,22.45a270.23,270.23,0,0,0-17.25,36.45l-10,29.25q-5.85,17.7-10,29.26-21.45,59.15-27,71.5-19,42-35,42.3l.6-.6a30.6,30.6,0,0,1-13,2.85,92,92,0,0,0,20.4,8.55,19.72,19.72,0,0,1-1.05-7.5q.6-5.55,9.15-5.7,6.3-7.65,14.2-18.75a247.75,247.75,0,0,0,25-41.7L759.4,375a250.54,250.54,0,0,0,13.2-31.51q13.95-49.2,23.25-73.95,10.65-27.9,21.45-39.7a166.35,166.35,0,0,0-17.7,8.25ZM886.1,222q-3.9,8.1-10.8,20-17.7,29.05-21.45,36.1-8.16,15.9-16.75,35.55-3.75,9-14.55,35.41-5,12.3-12.45,35.85a148.86,148.86,0,0,1-17.1,35q-3.75,5.55-11.55,17.55-7.2,10.65-13.05,18a157.61,157.61,0,0,1-20.86,18.45,120.27,120.27,0,0,1-18.15,13.05,1.52,1.52,0,0,0,0,.6,181.09,181.09,0,0,0,25-17.55,241.86,241.86,0,0,0,49.36-53.85,390.3,390.3,0,0,0,22.35-36.45,151.72,151.72,0,0,0,14.4-37c4.5-20,7.3-32.3,8.5-36.6a154.51,154.51,0,0,1,15.45-37.2q3.6-6,11.55-18.3a61.25,61.25,0,0,0,8-18.85c.77-3.4,1.48-6.6,2.15-9.6Zm9.6-8.25A240.63,240.63,0,0,1,880.1,285q-18.45,51.45-21.25,70.36a94.68,94.68,0,0,1-17.55,36.7q-8.7,12.45-27.9,37.05a259.47,259.47,0,0,1-27,34.35Q757.15,495,734.64,495H733a45,45,0,0,1,2,5l1.2,3a66.51,66.51,0,0,1,7.2,0,92.9,92.9,0,0,0,29.71-11.55,77.77,77.77,0,0,0,10.35-7.2l5.4-4.2,4.05-4.35q7.2-7.65,20-22.5l18.75-21.75-1.05.45q21.75-26.85,44.5-88.31,23.06-63.6,23.05-99a187.2,187.2,0,0,0-1.8-26.55q-.3-2.25-.6-4.2Zm-10,25q-4.2,9.71-20,36.85a151.84,151.84,0,0,0-14.1,35.55c-2.2,7.9-4.7,20-7.6,36.45q-5.7,32.87-50,88.16a339.36,339.36,0,0,1-35,38.1,89.07,89.07,0,0,1-18.46,13.95A111.6,111.6,0,0,0,782,461.53a183.86,183.86,0,0,0,15.75-18.6q12.3-16.5,14.4-19.05,36.15-43.8,43.8-74.35,4.4-17.71,25.75-87a191.36,191.36,0,0,0,7.05-33.4,93.19,93.19,0,0,1-3.2,9.65Zm1.65-33L870.65,225a217.47,217.47,0,0,0-31.9,45.4q-6.3,13.65-14,35.4-10.65,30-12.75,35.4a624.92,624.92,0,0,1-30.6,70.61,260.52,260.52,0,0,1-55.51,69.45q.75,1.2,1.65,2.4a185.31,185.31,0,0,0,61.51-67.2,309.88,309.88,0,0,0,16.8-37.15q9-24.6,13.5-36.46A669.06,669.06,0,0,1,851.8,270a390,390,0,0,1,23.8-35.8,67.36,67.36,0,0,0,11.55-28.45Zm61.95,6v.45a2.68,2.68,0,0,1,.75-.75Zm-10,16.35a139.18,139.18,0,0,0-15.6,28.6,120.74,120.74,0,0,0-5,22.05q-2.55,16.65-3.9,21.9a315.34,315.34,0,0,0-6.5,44.4,79.22,79.22,0,0,1-8.85,25,3.64,3.64,0,0,0-.45,1.65,65.87,65.87,0,0,1-3.15,8.1c6.1-3.75,12.45-7.25,19-10.65a10.5,10.5,0,0,0,1.5-.75h-.6a2.1,2.1,0,0,1-.3-1.2c0-.8,1.55-5,4.65-14.7A190.16,190.16,0,0,0,926.6,327a184.63,184.63,0,0,0,1.8-19.65q1.05-18.75,1.2-20.4,3.6-32,6.6-45a107.15,107.15,0,0,1,5.4-17.4Zm5.55-14.25a92.63,92.63,0,0,0-27.75,18.6,103.34,103.34,0,0,0-12.75,16.2,267.55,267.55,0,0,1-8.1,45.55q-3.15,12.75-12.3,45a190.42,190.42,0,0,1-20,47.41,96.34,96.34,0,0,0-9,22,259.32,259.32,0,0,1,31.45-23.1A145,145,0,0,0,903,343.22q1.8-8.1,7.2-45a223.07,223.07,0,0,1,10.65-44.55,127.61,127.61,0,0,1,23.65-39.8ZM95.08,271.42q-11.7,1.05-21.75,2.1,60.49,15.6,126.75,63.45,41.7,30,61.65,55-.45-1.5-.75-3a457.15,457.15,0,0,0-48.9-56.66,312.92,312.92,0,0,0-104.8-60.9Zm71.15,3.6q3.3,1.65,26.85,15.75a129.44,129.44,0,0,1,21.25,15.45q6.6,5.7,16.2,15.6a152.43,152.43,0,0,1,22.8,30q-1.2-6.76-2.1-14a185.7,185.7,0,0,0-17.55-28.8,123.17,123.17,0,0,0-30.9-28.2,296.85,296.85,0,0,0-40-7.35Zm-21.15-3.6h-30a253.13,253.13,0,0,1,45,19.35,230.34,230.34,0,0,1,51.25,35.85q10.95,11,31.2,33.91,9.15,10.35,15.45,18-1.2-5-2.1-10.35-.3-1.65-.6-3.15a254.85,254.85,0,0,0-28.65-40.81,224.73,224.73,0,0,0-78.25-52.5ZM288.43,160a134.17,134.17,0,0,0,12.15,6q-1.14-3.33-1.95-6.75-2.4-16.5-2.4-16.65Zm-34.65-18a147,147,0,0,1,27.75,38.55,436.24,436.24,0,0,1,20.25,45,463.82,463.82,0,0,1,18.3,47.05q5,15.75,15,47.4,5,15.6,14.7,47.56a330.51,330.51,0,0,0,19,47.45A351.51,351.51,0,0,0,398,462.28,127.36,127.36,0,0,0,419,485a97.67,97.67,0,0,0,13,9.15,108.83,108.83,0,0,1-12-9.5q-20.56-18.75-20.56-28.95h0a209.8,209.8,0,0,1-21.45-44.25q-7.05-19.35-14.7-50-7-28.37-9.3-33.91-5-12.45-13.5-42a369.77,369.77,0,0,0-14.2-42.75,426.2,426.2,0,0,0-48-82.8,126.23,126.23,0,0,0-17.1-13.65q-3.75-2.4-7.5-4.5Zm-10,35.25a93.71,93.71,0,0,0,0,11.85,42.81,42.81,0,0,1,1.65,4.65,427.79,427.79,0,0,1,33.45,84.1q8.7,29.25,23.85,87.91A383.85,383.85,0,0,0,338.08,453q11.85,20,13.35,22.05a121.32,121.32,0,0,0,17.7,21.75,143.61,143.61,0,0,0,27.75,21.85,128.94,128.94,0,0,0,42.76,12.15,160,160,0,0,0,17.8-5q9.75-3.26,16.35-5h-19.4q-44.16-2.7-66.56-13.3-17.74-8.89-17.75-19.85,0-.75,1.2-1.65a5,5,0,0,1,4.5-.75h.45a2,2,0,0,1,.3,1.35,1.44,1.44,0,0,1-.9,1.35,19.72,19.72,0,0,1-2.4.9,29.18,29.18,0,0,0,17.55,15.45,127.31,127.31,0,0,0,26,6.9q-40-17.25-73.81-70.8a492.49,492.49,0,0,1-47.85-106q-5.85-18-12.45-47.7-8-36.69-11-47.65a274.07,274.07,0,0,0-28-69,35.1,35.1,0,0,1,.15,7.1Zm1.3,25.95a189.32,189.32,0,0,0,6.45,27.3q5.7,18,18.55,53.35l1.2,3.45a299.12,299.12,0,0,1,15.3,50q12,55,15,63.86A330.5,330.5,0,0,0,327.53,465a191.44,191.44,0,0,0,50,54.7v-.4a6.26,6.26,0,0,1,6.75-2.55.59.59,0,0,0,.3.45c.3.2.3.5.3,1.15s-.75,1.65-2.25,2.9a10.64,10.64,0,0,0-1.5,1.35c2.3,1.55,3,2.6,2.1,3.1s-.7,1.15.6,2.1a111,111,0,0,0,16.65,6,27.6,27.6,0,0,0,4,.3q8.4,0,16.81-.75-46.26-11.55-82.71-71.05a355.36,355.36,0,0,1-40.3-96.4q-3.75-15-12-43.21-8.85-30-12.3-43.35a490.93,490.93,0,0,0-18.45-50q-7.05-17.44-10.5-26.45A.51.51,0,0,0,245.08,203.22Zm-5.55-24.45a60,60,0,0,0-9.15-26.55,118.76,118.76,0,0,0-15.9-20.7h-2.25q.75,2.7,17.25,30.3,6.3,10.65,10,18.3A7.62,7.62,0,0,1,239.53,178.77ZM260.08,190l15.6,45c1.8,7.45,5.7,23.6,11.7,48.6q7.2,30.6,11.85,48.15a366.24,366.24,0,0,0,43.3,96.86q4.65,7.65,14.55,24.45a118.21,118.21,0,0,0,19.5,24q2.1,1.8,11.7,12.45a66.78,66.78,0,0,0,14.1,12.15q20.72,12.9,66.41,12.9l.75.45a9.65,9.65,0,0,0-1.35,1.2h7.65a83.79,83.79,0,0,1-14.1-7.55,131.35,131.35,0,0,1-17.2-2.65,170.51,170.51,0,0,1-17-4.65q-7.35-2.55-15-5.7-31.06-13.05-31.06-24.15a7.08,7.08,0,0,1,2.55-6.5,340.31,340.31,0,0,1-21.45-28.8q-10.35-16.2-12.55-19.35a211,211,0,0,1-25.45-47.95l-16.2-48a465.57,465.57,0,0,1-12-48.45,497,497,0,0,0-11.85-48.4,185,185,0,0,0-56.15-83.4,68.76,68.76,0,0,1,7.65,10l1.5,2.4A125.73,125.73,0,0,1,260.08,190Zm-16.5,28.2v9.3a182.7,182.7,0,0,0,2.4,23.1l3.6,23.2q1.8,15.3,4.35,46.2a398.73,398.73,0,0,0,6.9,46.51h0l5.55,16.75c-.8-1.5-1.65-2.95-2.55-4.5q1.5,5.64,3.15,11,6.6,26.1,6,18.6a6.65,6.65,0,0,0-.3-2.1,295.57,295.57,0,0,0,26.4,52.95q20,31.2,61,57.9l3.6,2.25a211.28,211.28,0,0,1-28.6-23.25,198.91,198.91,0,0,1-22-26.55,126.24,126.24,0,0,1-14.55-26.4,247.2,247.2,0,0,1-12.65-52.6q-4.2-35.5-6.9-53.11A340.52,340.52,0,0,0,265.63,285Q253,249.32,247,232a118.65,118.65,0,0,1-3.6-13.9Zm-24-87.45q44.55,22.2,68.85,93.9a575.19,575.19,0,0,1,15.15,56.2A386.66,386.66,0,0,0,313,318.82q13.75,43.2,15.85,48.91a200.12,200.12,0,0,0,26.2,48.4q4.35,5.7,15.6,24.15A192.25,192.25,0,0,0,387.33,464c3.34-.7,5,.15,5,2.55a2.32,2.32,0,0,1-.75,2,7.16,7.16,0,0,0,.75.9l-4.35.3-.3-.3a1.87,1.87,0,0,0-.9.45h-.6a1.37,1.37,0,0,1,.3.45,1.89,1.89,0,0,0-.45,1.35q0,7.2,20.4,16.05l-1.65-1.35h0l3,2.25q3.6.6,14.26,3l-11.55-7.65-20-22.8a174.19,174.19,0,0,1-15.9-23.55q-4.35-7.8-12-23.7a386.87,386.87,0,0,1-18-46.6q-9.49-31.66-14.5-47.26-27.24-80-32.95-94a356.67,356.67,0,0,0-52.35-88.8,68.52,68.52,0,0,0-25.35-6.6Zm230-21.45Q478.18,146.07,499,227.37a597,597,0,0,1,21.05,147.26v1.05a3.88,3.88,0,0,1,3-1.35,4.94,4.94,0,0,1,2.85.75q1.95-.6,3.9-1.05-2.25-8.7-6.3-44.41-7-60.9-10-77.7-8.46-47.29-11.75-61.9-1.2-5.25-2.55-10-2.55-6.6-5.7-14.55-9.3-23.4-11.25-29.55-5.85-5.29-12.2-10.9c-6.5-5-13.3-10.45-20.6-15.85ZM523,84a95,95,0,0,0-16,20A128.81,128.81,0,0,0,493,139a192.51,192.51,0,0,1,16.65,17.85v-2.55A327.81,327.81,0,0,1,523.54,100a119.06,119.06,0,0,1,15-26.85q-6.9,5-15,10.35a1,1,0,0,0-.6.35Zm-11.1,7.5q-30,20.55-40,29.05,8.55,6.9,15.75,13.5l1.2,1.2q.3-11.85,18.45-37.75,2.25-3.3,4.5-6.15Zm-170-35.7q0,20.85,30.6,91.3,15.9,36.6,36.91,81.75,15.9,38.46,30,78.7,24.54,70,24.55,93.11v1.65l.9-.6a305.35,305.35,0,0,0-13.15-87.41q-19.65-60.9-28.95-91a440.46,440.46,0,0,0-17-45.3q-13.35-30-20.4-45.9-4.65-10.65-27.3-51.4Q347.63,62,342.68,52.22Zm1.2-11q36.45,48.45,79.51,165,45.5,123.06,47.05,188.61a92.55,92.55,0,0,1,8.7-5.25,432.42,432.42,0,0,1-9-42.7q-5-30.76-8.4-43.81-7.35-29.14-10.9-43.85Q443.73,237,437.69,219a790,790,0,0,0-34.06-87.75,398.82,398.82,0,0,0-52.25-82Zm-8.65,30q0,25.35,23.35,76.75,11.85,26.7,32.25,69a172.89,172.89,0,0,1,12,18.45c2.5,4.4,6.2,11,11.11,19.75a225.14,225.14,0,0,1,14.55,28.95q-9.15-24.15-22.21-55.3-18-38.55-35-77.85-33.6-77.81-33.6-95a28.37,28.37,0,0,1,0-3.45c-.5,1.3-1.05,2.65-1.55,4h0c.25,1.4-.3,6.2-1.2,14.5Zm-4.4-1.05c-.5,2.4-1.2,6.1-2.15,11.1a138.08,138.08,0,0,0-2.85,17.4,117.2,117.2,0,0,0,13.45,49.15q7.05,15,23.1,43.35a122.73,122.73,0,0,1,18.45,14.7l-6.6-12.3q-14.1-26.85-20.7-43.05-10.8-23.85-15.45-35a95.38,95.38,0,0,1-7.8-34.45A107.22,107.22,0,0,1,330.08,73.82ZM313.63,110a49.44,49.44,0,0,0-1.2,7,101.19,101.19,0,0,0,7.35,34.15,155.4,155.4,0,0,0,14.4,29.1l4.6,2a198.72,198.72,0,0,1,17.85,9.3,194.52,194.52,0,0,1-22.35-37.35,128.67,128.67,0,0,1-13.6-52A81.35,81.35,0,0,1,321.43,91q-3.15,5.55-6.75,12.45Q314.53,105,313.63,110ZM303,127.82a45.91,45.91,0,0,0-2.7,15,41.86,41.86,0,0,0,2.4,15,49.5,49.5,0,0,0,6.9,12.2l16.05,6.9a30,30,0,0,1-1.95-3.45,110.62,110.62,0,0,1-8.25-18.75,188.41,188.41,0,0,1-7.65-30.6v-7.2q-2.1,4.2-4.35,9.45c-.1.33-.25.8-.45,1.4Zm62.1-71.25q30.75,31.35,66.31,130.6,16.5,46.2,29.1,93.4,11.19,42.15,11.2,52.65a126.63,126.63,0,0,0,2.55,15q2.7,12.91,2.7,14,.45,6.45,3.6,28.5v1.15c2.5-1.3,5-2.5,7.8-3.75a166.21,166.21,0,0,1-6.3-30q-7.5-47.71-8.1-51-5-27.45-8.25-41.7c-3.4-16.5-6.55-30.35-9.45-41.65a445.25,445.25,0,0,0-31.15-83.05A539.37,539.37,0,0,0,380.48,65Q372.83,60.76,365.08,56.57Zm25.5,14.25q1.65,2.25,3.15,4.65,4.35,7.05,12.45,21.3,14.11,23.6,22.51,41.35a461.48,461.48,0,0,1,31.4,83.25q5.45,20.7,16.65,74.2,15,71.25,15,90.91c2.6-1.15,5-2.2,7.95-3.3q-1.5-9.75-8.55-57.46-10-67.65-17.25-97.3A409.42,409.42,0,0,0,406,80q-7.5-4.56-15.45-9.2Zm-60,112.75c-5-1.9-10.7-3.95-17.05-6.15a163.7,163.7,0,0,1,43.15,68.05q3.4,10.35,10.9,39.55a312.7,312.7,0,0,0,12.15,39.3q10,25.5,24.6,91.76a226.12,226.12,0,0,0,7.51,23.55,21.72,21.72,0,0,1,10,6.6q5,5,8.1,8.25a8.75,8.75,0,0,1,.3-2.4q.45-2.4,1.05-4.5-4.35-6.3-13.8-50.4-13-62.16-18.11-83a306.67,306.67,0,0,0-10-32.7Q380.08,255,377.63,247q-5-16.05-24-40.35l-17.85-21-1.5-.6a2.72,2.72,0,0,1-.9,0,4.21,4.21,0,0,1-2.85-1.5Zm10.8,4.65a146.3,146.3,0,0,1,42.45,56.1,254.25,254.25,0,0,1,11.55,33.85q3,11.4,8.85,33.15,9.15,42.3,29.26,129a52.49,52.49,0,0,1,5-11.1,113.11,113.11,0,0,1-2.1-16.8c-1.6-19.4-2.55-30-2.85-32.2a382.82,382.82,0,0,0-11.25-51.76q-10.65-36.9-15.31-51.75c-5-16.1-10-30.7-15-43.9q-1.5-2.4-2.4-3.6a141,141,0,0,0-40.35-37,76.2,76.2,0,0,0-7.9-3.9Zm60,60.55q5.25,12.15,10,26.25,3.75,11.4,15,51.9a450.35,450.35,0,0,1,10,49.36,453.44,453.44,0,0,1,5.25,48,62.58,62.58,0,0,1,7.25-9.2q-4.5-5.4-6.75-27.3-2.55-34.61-4.5-46a215.29,215.29,0,0,0-9.6-37.8,225.8,225.8,0,0,0-16.65-37.2q-5.86-10.29-10.21-18Zm-91.05-72.4a174.81,174.81,0,0,1-24.3-10q24.45,27.15,45.85,80a812.35,812.35,0,0,1,26.55,79.2q4.05,13.8,12,42.76,6.06,21.46,14.25,42.25,3,7.05,7.95,21.3a176.11,176.11,0,0,0,9.3,20.7,6.11,6.11,0,0,1,3-1.5,4.82,4.82,0,0,1,1.2,0l.3.3c.3.3.3.35.3,1.05a7.08,7.08,0,0,1-1.35,2.85l-.3,7.2a.51.51,0,0,0,0,.3v.3a38.3,38.3,0,0,0,6.16,10.65,32.84,32.84,0,0,0,15.6,10.35l13.8,7.65.75.45,1.95,1.05h0a55.58,55.58,0,0,1-8.55-11q-4.2-.3-10.35-7.95-10-8.4-17.56-30a260,260,0,0,1-7.35-26.25q-2.7-13.8-3.45-16.2-.3-1-9.6-38.8-6-23.86-11.25-38.71-5-13.35-11.4-38.7-6.9-26.4-11.1-38.65A191.64,191.64,0,0,0,310.33,176.37ZM486.64,140q13.65,22.2,24.3,68.55l-.45.3q1.35,6.9,6.3,32.65,3.75,20.4,5.4,32.1a320.63,320.63,0,0,1,4-33.25q-6.75-35-7.65-38.85a270.75,270.75,0,0,0-12.3-40.65A233.26,233.26,0,0,0,486.64,140Zm35,51a206.42,206.42,0,0,1,7.5,35.55q1.65-8.25,3.9-16.95a16.21,16.21,0,0,1-.45-2l-1.05.45a41.07,41.07,0,0,0-.3-5,113.74,113.74,0,0,0-16.15-30.65,181.9,181.9,0,0,1,6.35,18.6Zm-54.45-3.9a203.48,203.48,0,0,1,11.25,39.3q.45,2.7,12.45,71.65,11.25,67.95,11.7,84.16c4.6-1.8,9.4-3.4,14.4-5q-3.15-2.06-4.35-26.35-2.25-39.17-2.7-42.91a486.75,486.75,0,0,0-13.35-69.25q-15.3-53.25-21-69.6a327.47,327.47,0,0,0-29.5-62.85q-15-10.86-32.7-21.85a150.08,150.08,0,0,1,17.7,24,432.14,432.14,0,0,1,20,39.55q13.5,33,15.9,39.2Zm64.65,45a304.58,304.58,0,0,0-5,56.05,198.91,198.91,0,0,0,16.8,84.61l-.6,1.05h8.4q-21.6-94.06-21.6-115v-12a66.61,66.61,0,0,1,1-8.2q.3-3.15.75-6.6Zm-98.55,70.65a273.71,273.71,0,0,1,8.85,33.9q2,9.52,2.95,19.21,1.65,15.75,2.1,19.5c.8,6.1,2.95,17.85,6.6,35.35a15.59,15.59,0,0,1,1.6-1.65c1.75-1.5,3.45-2.95,5.3-4.35a280.19,280.19,0,0,1-8.25-32.5c-6-27-10.45-44.71-13.2-53.11Q436.44,311.47,433.29,302.77Zm35.95,101.36a2.58,2.58,0,0,1-1.95,1.05,96.94,96.94,0,0,0-14.7,13.05,70.13,70.13,0,0,0-16.75,27.6q-.3,3.6-1.8,13.2v1.5a3.14,3.14,0,0,1,0,.75v1.5a41.06,41.06,0,0,0,1.65,9.45,16.67,16.67,0,0,0,3.45,12.8l5,3a51.15,51.15,0,0,0,3.85,4.35,56.66,56.66,0,0,0,11,8.55l4,1.8.5.75a131.55,131.55,0,0,0,51.6,12.7,238.68,238.68,0,0,1,66.6-38.25q10-3.75,28.3-11.85a88.86,88.86,0,0,1,15.45-3.6q1.8-6.3,3.75-12.9,2.55-9.75,3.6-16.5h0a49.08,49.08,0,0,0,.6-7.05v-1.5l-1-.3v-4.5l.45-.75a45.36,45.36,0,0,0-12.45-21.3,64.08,64.08,0,0,0-32.4-16.9l-1.05.3a8.85,8.85,0,0,0-.75-.75,106.62,106.62,0,0,0-16.5-2.25,4.37,4.37,0,0,1,.5,2.25,4.69,4.69,0,0,1-.5,2.65,3.52,3.52,0,0,1-2.2,2,28.15,28.15,0,0,1,.45,5.35v1.35l1.75-.85a5.13,5.13,0,0,0,1.55.3c.3,0,.45.45.45,1.15a3,3,0,0,1-1.5,2.25,5.82,5.82,0,0,1-3.45,1.2,9.57,9.57,0,0,1-5-1.2,2.44,2.44,0,0,1-1.35-1.95c.13-.58.23-1.17.3-1.75l2,.7a9.37,9.37,0,0,0,1.95.6,4.29,4.29,0,0,1-.45-1.95,22.06,22.06,0,0,1,.45-5,3.76,3.76,0,0,1-2.4-1.5,4.89,4.89,0,0,1-.3-1.85,5,5,0,0,1,1.8-4.15h-9.1l-1.65.75a2.36,2.36,0,0,1,0-.75l-21.9.45-3.45.9a3.79,3.79,0,0,1-1.5,2.85v3a12.05,12.05,0,0,1,0,1.9,11.11,11.11,0,0,0,5,0l.45.3a2.8,2.8,0,0,1,.3,1.2q0,2.7-4,2.7a10.19,10.19,0,0,1-4-.75h-.9v-.45a7.29,7.29,0,0,1-1.35-1,4,4,0,0,1-1.5-2.55v-.9a13.58,13.58,0,0,1,2.85.8,20.45,20.45,0,0,1,.75-3.8,4.58,4.58,0,0,1-2.85-1.35,172.84,172.84,0,0,0-37.5,14.55q4.05-.3,4.05,4.2a11.46,11.46,0,0,1-.45,3.9,4.13,4.13,0,0,1-1.7,1.45h0a24.76,24.76,0,0,1-.75,3.6,11,11,0,0,0-.6,2.1,20.24,20.24,0,0,0,4.65.75l.75.75a3.19,3.19,0,0,0-1.05,1.8c-.37.66-1.37,1-3,1a7.16,7.16,0,0,1-7.5-4.2c-.5-3-.8-4.67-.9-5q1.65-1.2,2.7,1.5a6.2,6.2,0,0,0,1.65,2.25,18.4,18.4,0,0,1,.45-2.55,3,3,0,0,1,.3-1.35,3.35,3.35,0,0,1-2.85-2.1,5.37,5.37,0,0,1-.45-2.4,6.56,6.56,0,0,1,.75-3.45,90.91,90.91,0,0,0-9.6,6.15C469.47,404.34,469.34,404.43,469.24,404.13Zm36.9,18.9a5.88,5.88,0,0,1-.75-2.1,4.6,4.6,0,0,1,3.75-5.25q3.6-.9,3.6,2.4a10.83,10.83,0,0,1-.75,5,3.23,3.23,0,0,1-1.95,1.65v4.5a75.93,75.93,0,0,0,8.25.9,2.18,2.18,0,0,0-1,1.8q-.6.9-5.55.9a9.79,9.79,0,0,1-5.55-1.35l-2.85-2.4v-1.5a14.64,14.64,0,0,1,3,.6,13.15,13.15,0,0,1,.45-3.75A7.47,7.47,0,0,1,506.14,423Zm22.5-23.1q-.6,1.65-3,1.65h-.55V405l6,1.05,1,1.05q-.6,1.8-5,1.8a8.55,8.55,0,0,1-3.15-.75h-1a2.31,2.31,0,0,1-.6-1.05,43.12,43.12,0,0,1-4.65-3.15,33.83,33.83,0,0,1,3.75.3,21.47,21.47,0,0,1-.3-3.75,4.1,4.1,0,0,1-1.65-1.8,9.31,9.31,0,0,1-.3-3.15c0-2.2,1.66-3.2,5-3,3.2,0,5,1.45,5,3.6a12.9,12.9,0,0,1-.55,3.85Zm4.5-26.05h8.7a109.41,109.41,0,0,1-12-25.81Q532.69,370.59,533.14,373.88Zm-128.06,77.2v4.5a7.87,7.87,0,0,1-.6,1.05q.3.45,1-1.5A16.73,16.73,0,0,1,405.08,451.08Zm9.61,4.5q6,17.85,15,15a1.77,1.77,0,0,1,.3.45,27.39,27.39,0,0,1-.6-5.7v-4.65q-2.1-2.25-5.4-6.3-7-8.55-10-9.15a25.32,25.32,0,0,0,.3,8.85,8.39,8.39,0,0,1,.25,1.5Zm-67.51,43.8a265.73,265.73,0,0,1-22.3-32.55,235.77,235.77,0,0,1-27.9-65c-3.8-16-7.1-29.65-10-41.05q1.65,12.3,3.6,28.75a226.34,226.34,0,0,0,15,54.15A157,157,0,0,0,347,499.38Zm-29.35,20.35a88.58,88.58,0,0,0,7.8,5.85,219.24,219.24,0,0,1,19.3,19.5,173.35,173.35,0,0,0,40,34.35h.45v-2.25l.3-.3a2.08,2.08,0,0,1,1.35-.3q.45,0,2.85,2.4a10.92,10.92,0,0,0,7.65,2.25A101.82,101.82,0,0,0,441,572.08a146.55,146.55,0,0,0,20-11.25,54.21,54.21,0,0,0,15.6-10.5c1.8-1.6,3.46-3,5-4.2-5.5,2.7-12.2,5.65-20,8.85q-40,16.5-59.26,16.5a79.55,79.55,0,0,1-30-4.5q-8.25-3.3-8.25-6.9v-2.25a.51.51,0,0,1,0-.3,2.08,2.08,0,0,1,1.5-.45q.75,0,5,5,7.65,5,26.4,5,24.62,0,60-15.45a459.76,459.76,0,0,0,41.5-21.3l7.8-7.05c.8-.7,1.65-1.4,2.55-2q-19.2,10.54-40.8,21.25-43.45,21.3-56,21.3a13.47,13.47,0,0,1-7.51-1.65,3,3,0,0,1-1.65-2.55,4.13,4.13,0,0,1,1.65-3.75h1.8a24.75,24.75,0,0,1,.45,4.2h3.31q16.5,0,51.45-17.7Q493.88,526,504.39,521a56.74,56.74,0,0,0-10.5,2.75A100.57,100.57,0,0,1,475,534.53a109.93,109.93,0,0,1-46,10.8q-17.7,5.85-25.66,8.25h-22.5a52.81,52.81,0,0,1-13.2-3.75,12.47,12.47,0,0,1-5.7-5.4v-3.15l.3-.3q.3-.45,1.35-.45c1.05,0,1.95,1.15,5.55,3.45a39.32,39.32,0,0,0,10.95,5h23.55l12.91-4.2q-23.46-.75-51.46-17.95c-2.5-2-5-3.65-7.05-5A196.46,196.46,0,0,1,297.28,475q-30-36.9-43.35-52.8-48.85-58.2-90.4-80.91a161.23,161.23,0,0,0-78.15-18.9,70.91,70.91,0,0,0-15.75,2.25l-2.4.6A600.48,600.48,0,0,1,190.08,385q46.5,30.39,70.35,62.65a279.9,279.9,0,0,1,28.8,35q7.2,10,17.85,26.25Zm7.25,54.3a223.11,223.11,0,0,0,8.5,23.85,76.2,76.2,0,0,0,26.5,30.45q.75-1.35,3.6-.75h.45A46.77,46.77,0,0,1,355.08,615l-7.8-20.55a194,194,0,0,1-16.95-25q-13.59-25-20.65-37.65c-5-9.4-10-17.6-14.1-24.7q17.4,39,19.65,43.15A124.08,124.08,0,0,1,325.08,574Zm12.7-28.65-12.7-11c.55,1.45,1.05,3,1.7,5a34.49,34.49,0,0,0,1.9,3q22.05,34.05,33.45,49.05,23.25,30,46.65,40.35l2.26.45a27.45,27.45,0,0,1,9,2.75,57.83,57.83,0,0,0,12.45,1.35,41.34,41.34,0,0,0,23.55-6.15l6.25-5.85a34.07,34.07,0,0,1-1.5-8.25q-1.35,1.8-3.3,4a20.7,20.7,0,0,1-15,8.85,41.58,41.58,0,0,1-12.9-1.5l-3.3-1.65a7.39,7.39,0,0,1,3.75-.85h5.85a25.29,25.29,0,0,0,20-8.4,49.68,49.68,0,0,1,5-7V601a69.34,69.34,0,0,1-13.05,9.75,57.52,57.52,0,0,1-27.55,10,48.57,48.57,0,0,1-17.41-1.95,27.58,27.58,0,0,0-3-3.3,57.56,57.56,0,0,0,41.86-7.35,58.88,58.88,0,0,0,20-16.35,75.47,75.47,0,0,1,3.3-18.9q-6.3,5-12.9,9.3-28.6,19-53.66,19-16.35,0-20.4-4v-1.35q2.25,0,13.8.9a101.46,101.46,0,0,0,47.41-12.9q17.94-11.4,28.75-17.85a71.67,71.67,0,0,1,5.7-8.85,178.49,178.49,0,0,1-30,18.15,90.64,90.64,0,0,1-38.36,10,52.35,52.35,0,0,1-15-1.65,73,73,0,0,1-30.75-16.95,171.71,171.71,0,0,1-20-20Zm75-6.15a64.56,64.56,0,0,0,15,1.35h1.35l14.1-4.5q-3.75,0-7.35-.3a189.17,189.17,0,0,1-25,2.7,12.34,12.34,0,0,0,1.7.75Zm101.05-86.05v3.45h1.5a7.66,7.66,0,0,0,3.75-.6,9.15,9.15,0,0,1,2.55-1.65q-1.11,5.64-8,5.65h-1a.58.58,0,0,0-.45,0,2.77,2.77,0,0,1-1.35-.9l-1.65-1.05a12.05,12.05,0,0,1-3.45-3.3v-.3a12.2,12.2,0,0,1,3.45,1.2,9.61,9.61,0,0,0,1.5.45v-4.05a2.36,2.36,0,0,1-.45-.6,4.11,4.11,0,0,1-.75-2.1q0-5,3.9-5.55t3.9,3.3a10.93,10.93,0,0,1-.6,4.35,3,3,0,0,1-3,1.7Zm-7.2,23.7a4.55,4.55,0,0,1,9-1.05,3.8,3.8,0,0,1,1.8,3.75,9.28,9.28,0,0,1-1.05,3.75q-1.2,2.85-2.55,2.85a7.15,7.15,0,0,1-2.25-.3q.3,1.65.75,3.45v2.85a20.63,20.63,0,0,0,5.55,0,9.49,9.49,0,0,0,.3,1.5q0,2.25-3.15,2.25A15.83,15.83,0,0,1,502.89,488a17.94,17.94,0,0,1,5.7,2.55l.45.3q.3-2.55.6-4.65a24.29,24.29,0,0,1-1.8-4.5,20.64,20.64,0,0,1-1.4-4.8Zm-22.5-.75a14.66,14.66,0,0,1-4.35.75,11.59,11.59,0,0,1-10-3.75,24.86,24.86,0,0,1-1.65-5.85l.45-.9q1.8,0,4.65,3.75l1.35.9v-2.25a20.27,20.27,0,0,1,0-2.7,4.56,4.56,0,0,1-2.7-2.55q-.45-2.85-.45-3,0-3.9,4.35-3t4.2,3a15.75,15.75,0,0,1-.3,3.75,2.78,2.78,0,0,1-1.65,2v6a27.88,27.88,0,0,0,7.95-.3,2.77,2.77,0,0,0,1.2.3,2.54,2.54,0,0,1,.3,1.2c0,.7-1.25,2.1-3.55,2.7Zm-10-31.05q0,2.55-5,2.55a13.06,13.06,0,0,1-5.65-1.5,31.27,31.27,0,0,1-3.2-1.8,16.26,16.26,0,0,1-5-3.9q1.8-1.2,6.3.9a4.55,4.55,0,0,1-.3-1.35,12,12,0,0,1,.75-3.75h0a4.59,4.59,0,0,1-2.4-3q-.3-3.45-.3-3.6c0-2.4,1.45-3.5,4.2-3.3s4,1.45,4,3.75q.45,6.6-3,6.6h0a15.37,15.37,0,0,1,.6,3.75,19.22,19.22,0,0,1,0,2.4,24.67,24.67,0,0,0,8.4,1.2H474a2.76,2.76,0,0,1,.15,1Zm-15,85.45c-1.74.5-3.4,1-5,1.35h2.25l3-.9c1.35-.5,3.2-1.2,5.35-2.1ZM474.79,565a85,85,0,0,0-8.85,41.55,49.44,49.44,0,0,0,3,19,71.11,71.11,0,0,0,15.6,20.7q-14.1-20.55-14.1-53a78.12,78.12,0,0,1,7.05-32.55l-1.8,2.7a.39.39,0,0,0,0,.3A7.52,7.52,0,0,0,474.79,565Zm-25-26.4a147.9,147.9,0,0,0,24-7.2c3.7-1.5,7.35-3,10.95-4.6-5.7,1.75-12.6,4-20.7,6.85Zm61.65-12a107,107,0,0,0-21.75,68.1,105.52,105.52,0,0,0,5.4,35.3,132.16,132.16,0,0,0,15.75,30,18.36,18.36,0,0,1,3.6,2,69.15,69.15,0,0,1,7.65,2.65l2.55.75A65.32,65.32,0,0,1,507.69,634a184,184,0,0,1-6.15-49.2,165.28,165.28,0,0,1,2.1-22.65,73.57,73.57,0,0,1,4.65-20.7,169.16,169.16,0,0,1,7.8-18.6,31.56,31.56,0,0,0-4.85,3.65Zm-28.5,32.55a78.46,78.46,0,0,0-8.55,34.2,95.71,95.71,0,0,0,19.2,60q2.1,1.35,4.35,2.55a39.82,39.82,0,0,0,4.65,2.25,12.36,12.36,0,0,1,2.1.3l2.7.55A84.23,84.23,0,0,1,491,631.48a110.69,110.69,0,0,1-5.4-36.75,121.51,121.51,0,0,1,5.85-41.25,73.52,73.52,0,0,1,9.45-18q-4.65,4-8.55,7.95a99.75,99.75,0,0,0-9.65,15.6Zm28.2-15.6a118.75,118.75,0,0,0-6,41.1,158.63,158.63,0,0,0,6.3,46.35q6.3,20,7.65,23.1a37.4,37.4,0,0,0,9.75,12.4l12.6,3.75q-2-3.6-4.05-8.55a219.63,219.63,0,0,1-9.3-30,206.22,206.22,0,0,1-6-48.15,185.08,185.08,0,0,1,6.75-49.2A103.07,103.07,0,0,1,541.44,505q-5,3.3-10.5,7.2a103,103,0,0,0-20,31.2Zm-267-245.91a67.26,67.26,0,0,1-15-6.45,141.43,141.43,0,0,0-18.75-8.55h0a90.07,90.07,0,0,1,39.65,45.6q-1.8-14.55-3.6-31A3.15,3.15,0,0,1,244.18,297.67Zm-66.4,100.76c-5.5-2.5-11.4-5-17.7-7.45a164.34,164.34,0,0,1,41.35,43.75q12.45,19,32.55,57.9,6.75,11.1,15,28.2l14,28.75a240.27,240.27,0,0,0,30.9,47.4l6.75,3.9q-2.85-3.6-5.7-8a286.23,286.23,0,0,1-17.7-32.4q-17.85-38.25-27.1-55.5-25-48.3-30-56.25a223.27,223.27,0,0,0-41.8-49.65Zm37,21.6q-9.45-6-26.1-15.45a189.4,189.4,0,0,1,35.7,44.55q13.65,22.5,29.1,53.4,10.35,18.75,26.55,56.65a174.35,174.35,0,0,0,40,52.5l2.25,1.05a76.07,76.07,0,0,1-7.65-11.25q-10.8-24.3-13.2-29.55-17.55-38.25-23.4-52.15a387.29,387.29,0,0,0-25.65-52.65,277.32,277.32,0,0,0-30.45-42.3Zm14.7,1.8a234.71,234.71,0,0,1,23.85,18.9q-31.65-35-97.45-70-20-10.65-58.35-28.81-21.75-10-31.51-15.6a36,36,0,0,0,7.21,12.9,68.42,68.42,0,0,0,24.6,13.21l25.65,9.15q25,11.7,49.2,25a502.25,502.25,0,0,1,43.9,25.9q6.6,4.39,12.9,9.2Zm40,.6q6.15,9.15,11.4,16.8a237.12,237.12,0,0,1-14.25-31.35q-37.8-48.7-105-91.16A365.45,365.45,0,0,0,98.28,284,135.05,135.05,0,0,0,62,275c-7.55.9-14.35,1.85-20,2.85A114.42,114.42,0,0,1,82.28,289l25.5,9a285.17,285.17,0,0,1,28.05,11.85,427.5,427.5,0,0,1,83.75,56.11,276.83,276.83,0,0,1,50.1,56.35Zm-176.6-58.9c4.7,4.4,9.4,9.05,14.1,13.9,8.1,7.6,16,16.35,24.45,25.95q17.4,20,51.15,60,5,6.9,10.8,15.9c3.85,5,7.85,10,12,15q9.3,13.05,27.6,40.45a396.23,396.23,0,0,0,30.9,39.45,83.67,83.67,0,0,0,9,8.25,252.48,252.48,0,0,1-35-45q-5-8.4-30.6-57.1a340,340,0,0,0-36.65-57.15,270.28,270.28,0,0,0-52.65-48.85l-10-4.2Q99.62,366.68,92.88,363.53Zm10.5,51.5a558,558,0,0,0,49.35,40.5q21,15.9,33.15,25.5-4-5.85-7.35-10.35l-10.8-12.3q-14.55-16.65-24.15-28.65-7.65-5.5-18.5-13.9l-1-.8-.9-.6a299.17,299.17,0,0,1-30-21.6q-8.1-7-18.6-17.15c-11.21-9.4-20-17.1-25.91-23.1,4.7,5.6,10.35,12.45,17,20.55Q86.59,398.18,103.38,415Zm22.35-37.5a223.94,223.94,0,0,1,49.35,43.55A309,309,0,0,1,211,478.53q16.35,32.55,31.35,56.65a473.57,473.57,0,0,0,33.45,47.7,9.21,9.21,0,0,0-1.05-1.65q-11.25-20.4-16.5-29.4-6-10.35-14.55-28.8-10-21.79-13.65-28.75-23.85-45.3-32.25-57.9a212.08,212.08,0,0,0-43.9-47.85q-16.5-6.4-28.2-11.1Zm11.4,100.65a581.18,581.18,0,0,0,54,62.95,430.4,430.4,0,0,0,35.35,30.6,248,248,0,0,0,39,25.95,433.85,433.85,0,0,0,45.75,20q2.4.9,10,3a399.94,399.94,0,0,1-111.15-68.25,861.93,861.93,0,0,1-78.65-81.7q2.85,3.6,5.7,7.35Zm-15-24.45A1026,1026,0,0,0,239.68,561.68q-7.65-9.6-17-23.85l-6-9.45q-27.34-22.25-47-35a293.75,293.75,0,0,1-31.2-24q-4.8-4.35-16.5-15.75Zm-7-7.45h0q5,3.45,29.4,23.1a335.41,335.41,0,0,0,32.85,23.7c11.5,6.8,20.85,12.85,28.15,18.15-2.8-4.5-5-8.35-7.3-11.55-2.7-4.3-5.35-8.25-7.85-11.85a478.94,478.94,0,0,1-93.1-71.7,431.66,431.66,0,0,1-45.91-53.05Q67.18,393.83,104.58,435Zm-9,126.25q-1.2,2.7-3,8-.45,1.2-.9,2.55a79.48,79.48,0,0,1,13.8-17.1q16.35-15.6,28.35-9.3v-.3h20a116,116,0,0,1,41.2,9.45q5.25,2,9.3,3.75-6.6-5.55-13.5-11.85a6.11,6.11,0,0,0-1.35-.9,42.21,42.21,0,0,0-16.9-4.2h-33.5q-28.35,2.55-38.1,11.7A21.34,21.34,0,0,0,106.08,572.53Zm24.75-7.2a26.91,26.91,0,0,0-12,5,44,44,0,0,0-8.25,10q-2,3.15-6,10a39.53,39.53,0,0,1-6,7.5,20.56,20.56,0,0,1-1,2.1,64.68,64.68,0,0,0,7.2-7.95,93.52,93.52,0,0,1,8.55-10.5q12.15-12.15,39.3-15,43.8,3.6,61.6,10A84.39,84.39,0,0,1,233.83,588q-3.3-5.55-3.3-5.7V582a2.78,2.78,0,0,1-1.5.3,92.74,92.74,0,0,0-21-10.8l-15.45-5.7a112.26,112.26,0,0,0-28-4.65h-19.5Q143.43,562.34,130.83,565.33Zm10-85.75q46.35,48.15,75.4,72.7a448.87,448.87,0,0,0,108.85,69.6c1.4.3,3,.7,4.7,1.2q-7.8-3.6-15.6-7.8a241.64,241.64,0,0,1-50-33.45,13.32,13.32,0,0,1-6.6-2.55,236.15,236.15,0,0,1-40-28.8q-23.4-19.65-42.55-38.2-18.71-17.25-34.3-32.7Zm119-22.35a215,215,0,0,0-24.8-22.8,171.23,171.23,0,0,1,21.45,29.7q1.8,3.3,25,53.55,9.75,18.2,29.7,66.1,17.16,35.55,33.1,38.4a2.79,2.79,0,0,1,1.5-.75,66.37,66.37,0,0,1-15-19.5,218.26,218.26,0,0,1-9.7-25,144.79,144.79,0,0,0-9.6-24.15q-3.75-6.9-21.3-47.8a244.85,244.85,0,0,0-10.8-23.45,238.75,238.75,0,0,0-19.65-24.3Zm-15,134.65q1.35,2.1,2.7,4.35a22.84,22.84,0,0,1,2.4,2.1l15.3,14.4q25,19.35,81.4,23.25h2.7c-9.4-2.7-20.95-6.75-35-12.15q-34.35-13.35-55.95-24a144.93,144.93,0,0,1-13.35-8Zm-1.8,13.5a56.06,56.06,0,0,0-6-11.55,4.37,4.37,0,0,1-1.35,0,176.57,176.57,0,0,0-23.25-11.25,141.79,141.79,0,0,0-52.75-11.25,63.88,63.88,0,0,0-35,8.25q-7.8,5-27.3,20.55a3.88,3.88,0,0,0-.75,1h0a166.28,166.28,0,0,0,17.55-10,92.8,92.8,0,0,1,32.1-8.85q23.25-2.25,65.35,13a219.27,219.27,0,0,1,32.4,14Zm7.35,23.85q-1.65-4.2-3.75-11.7h0q-13.8-7.2-31.35-14.4-38.29-15.75-63-15.75A99.91,99.91,0,0,0,114,595l-8,4.05a178.89,178.89,0,0,1,80.4,3q43.46,10.5,65.5,31Zm7.35-8q15.3,18.6,86.8,26h21q12.45-.9,33.6-3.6-7.65-1.05-15.3-2.55h-37q-58.44-5-82-23a111.19,111.19,0,0,1-13.2-12.75q2.1,5.55,4.5,13.65a26,26,0,0,0,1.65,2.25Zm-53.1,60A136.28,136.28,0,0,1,226,701.84a213.89,213.89,0,0,0,20.25,20.7q28.85,23.64,93.85,34.45h36.85q8.25-.3,27.45-3A305.79,305.79,0,0,1,358,738.09q-5.55-2.4-10.65-5l-25-7.8q-34.2-10.8-40-13.2a278.84,278.84,0,0,1-61-36,718.11,718.11,0,0,0-71.25-49.4q-40.5-23.25-60.9-17.85a2.36,2.36,0,0,1-.6.45q2.7,1.2,8.1,4.35a69.42,69.42,0,0,0,18.4,8.85q3.9,1.8,21,8.85,13.2,5.55,20,9.3a127.4,127.4,0,0,1,27.75,21,243.81,243.81,0,0,0,20.9,19.5Zm17.25-10.65q23.55,23.25,77.25,43.36,15.9,6,34.45,12.45c-3.3-1.9-6.5-3.8-9.55-5.7a620.47,620.47,0,0,1-80.55-40l-30-17.85a101.58,101.58,0,0,1,8.45,7.55Zm74.4-1.5q3.9,6.45,11.1,18.6a114.3,114.3,0,0,0,13.5,17.11c4.2,4.4,10.4,10.45,18.7,18.15q11.1,5.85,23.55,11a106.75,106.75,0,0,1-26.55-29.55q-10.85-17.1-13.75-21A90.56,90.56,0,0,0,303.68,664q-7.65-1-13.35-2.25a30.23,30.23,0,0,1,6.05,7.15Zm-15.75-10.6q-9.3-3.9-14.1-5.7a162.28,162.28,0,0,0,53.1,58,89.76,89.76,0,0,1-14.5-18.05q-7.35-12.62-11.4-18.76a78,78,0,0,0-13.05-15.7Zm-12,10.9q-53.1-30-62.1-34.45-37.24-17.25-44.65-19.65a195.36,195.36,0,0,0-33-7.5A545.06,545.06,0,0,1,221.38,650q23.4,13.05,62.1,38-5.25-5.7-10-11.55-2.44-3.45-4.85-7.2Zm-8.5-16.35q-1.5-3.45-5-12.3-25-15.3-31.2-20-15-10.95-69.7-19.2l-18.75-.45q-9.45-.75-11.25-.75-2.55,0-13.05.45l-10.8.6-2.85,1.2h2.4q20.85-5.7,55,4.65a261.52,261.52,0,0,1,50.65,21.45,393.32,393.32,0,0,1,41.25,22.8l19,12.55Q262.7,658.72,260.08,653.08Zm.6,31.15q28.5,14.12,47.1,25a205.29,205.29,0,0,1-17.1-14.2l-70-39.71a790.34,790.34,0,0,0-100-48.9h-2.55a103.18,103.18,0,0,1,21.1,8.6,116.1,116.1,0,0,1,16.2,9.3q10.65,7,15,9.45a244.19,244.19,0,0,1,35.8,23.1q20.7,10.5,54.3,27.35Zm272.76-51A109.17,109.17,0,0,0,551,673l10.35,2.55q-12.15-9.6-17-44.65a311,311,0,0,1-2.55-34.5V578.23q0-61.2,27.3-88.6-9.3,4.2-17.25,8.7-2.4,3.75-6.3,10a101.09,101.09,0,0,0-13.8,30,188.77,188.77,0,0,0,1.65,95Zm-105.7,11.25a38.1,38.1,0,0,1-10,2.55q-10.35,1.5-52.81,5.25h-19.5q-60.35-6.75-82.65-20.85a60.49,60.49,0,0,0,35.55,21.6,148.68,148.68,0,0,0,25.35,3.75c5.35.5,12.4.95,20.95,1.5h22.95l33.75-5.4q29.57-4.65,35.71-5.85a29.06,29.06,0,0,0,15-8.7c-1.45.6-3.1,1.25-5,2A77.42,77.42,0,0,1,427.74,644.53Zm34.15-8.85h0a66,66,0,0,1-8.35,7.05,63,63,0,0,1-15.75,9.1,203.5,203.5,0,0,1-33.16,6.65H421c.9,0,5.45-.85,13.65-2h17.7a24.91,24.91,0,0,0,6.4-3.4,14.31,14.31,0,0,0,5-8.55,11.21,11.21,0,0,1,.3-2.4A8.37,8.37,0,0,1,461.89,635.68Zm5.85-.45v1.2a17,17,0,0,1,1.2,7.5,18,18,0,0,1-6.3,11.7h16.05v-1.1a34.33,34.33,0,0,0-2.85-8.35l-.6-1.5a66.69,66.69,0,0,1-7.5-9.65Zm-1.5,33.7H438.39a87.5,87.5,0,0,1,19.2,15,216.08,216.08,0,0,1,18.85,22.66q11.4,15.9,15.3,22.2,10,16.5,10,24.6v1.5q6.75-1.2,13.5-3a32.63,32.63,0,0,0,1-7.8q0-17.55-14.7-42t-33.75-33Zm-15,39.61q6,8,20.85,25.5a53.92,53.92,0,0,1,11.55,22.8q7.35-.45,14.55-1.5A234,234,0,0,0,474.34,709a128.67,128.67,0,0,0-47.5-40H404.48a69.55,69.55,0,0,1,22.81,13.65,277.93,277.93,0,0,1,23.8,25.91Zm70-30.76q6.15,5.7,15.6,16.51a50.83,50.83,0,0,1,9.6,16.5,52.35,52.35,0,0,1,1.95,15.6,38.36,38.36,0,0,1-2.25,13.5,103.93,103.93,0,0,0,11-6.6,22.51,22.51,0,0,0,3.6-11.55q0-10.35-10.8-29a89,89,0,0,0-11.55-16.36l-7.8-2.1-3.3-.9-1.2-.3s-.35.3-.45.3a29.33,29.33,0,0,1-4.35-1q-4.5-.75-9.3-1.2a40.76,40.76,0,0,1,9.35,6.6Zm-35.85-23.25-3.45-3.15a24.59,24.59,0,0,1,.75,4.5l5,.6Zm16.2,15.6q-4.05-.3-8.1-.45A110.64,110.64,0,0,1,525.59,701a69.65,69.65,0,0,1,10.8,38.25,16.27,16.27,0,0,1-1.3,5.75l3.45-1.5a26.72,26.72,0,0,0,5.85-17.4,43.86,43.86,0,0,0-10-28A168.24,168.24,0,0,0,502,670.18Zm-11.1-.6q-6.9-.45-14.25-.45,13.5,5.4,27.15,26.26,17.4,27,17.4,42.45v10.65a10.58,10.58,0,0,0,0,1.95q3.3-1,6.6-2.25,1.05-1.5,2.7-3.45a9.06,9.06,0,0,0,2.4-5.4,63.77,63.77,0,0,0-10.65-36.6,257.66,257.66,0,0,0-31.3-33.16Zm-105.41-36.7A62.21,62.21,0,0,0,392,634a117.89,117.89,0,0,1-29.1-22q-3.15-3.15-6.15-6.45,2.55,5.25,3.9,8.7Q366.09,628.63,385.08,632.83Zm-.75,2.7,3.15.6-1.5-.75a7.4,7.4,0,0,0-1.75.15Zm-33.6-10-.6-.6a.39.39,0,0,1-.3,0,4,4,0,0,1,.8.4ZM347,668.38a96.1,96.1,0,0,1,22.5,15.6,153.38,153.38,0,0,1,20,25,258.94,258.94,0,0,0,18.9,25.65,106.23,106.23,0,0,0,22.06,18.6q5.85.9,11.85,1.65-10-7.35-29.4-33.75-28.22-38.55-44.11-52.36H358.13Zm-15-1.2,3.2,2.55a135,135,0,0,1,28.75,36,83.49,83.49,0,0,0,15.3,23.85,91.3,91.3,0,0,0,19.65,16.65q7.8,2.25,15.61,4a84.61,84.61,0,0,1-12-12l-18.15-26.4a228,228,0,0,0-19.5-25.36,84.55,84.55,0,0,0-20.7-18.45Zm-22.9-2.4a56.94,56.94,0,0,1,16.5,14.4c4,5,9.3,11.7,16,20.71A196,196,0,0,1,355.08,720a83.46,83.46,0,0,0,15,16.35l1.8.6q10.5,3.9,20.85,7.2a70.34,70.34,0,0,1-15.6-12.75,228.4,228.4,0,0,1-16.05-22.2q-10-15.9-15.9-23.41a89.49,89.49,0,0,0-20.8-19.65q-8.34-.69-15.25-1.6Zm85.9,4.35a59.79,59.79,0,0,1,18.61,14.7q3.3,3.75,17.85,25.66,2.7,3.3,20,25.65c7,9,13.1,16.35,18.4,22.05h10A224.2,224.2,0,0,0,459,724.94a194.49,194.49,0,0,0-62.36-55.81Zm15.91,42q15,23,16.2,24.3a79.12,79.12,0,0,0,25.45,20.85q6,.45,12.15.75a160.89,160.89,0,0,1-13.2-14.55,326,326,0,0,1-22.6-28.8,251.5,251.5,0,0,0-16.35-24.16A95.08,95.08,0,0,0,390,669.13h-16.8a79.55,79.55,0,0,1,21.85,18.1q1.91,2.4,15.86,23.71ZM978.5,351.38a134,134,0,0,0-22.8,24.3q-13.35,19.54-19.65,28.6a351.9,351.9,0,0,1-48,57.6,705,705,0,0,1-57.7,57.1,248.12,248.12,0,0,1-95.26,48.15h-.85c-1.35,2.3-2.75,4.65-4.25,7a65.23,65.23,0,0,0,14.25-2.85q30.91-10,85.36-50a276.94,276.94,0,0,0,33.85-29.7l30.6-31.05q13.2-12.45,29.4-30.9,9.15-10.5,25.8-30.3,8.4-10,32.7-38.2A76.21,76.21,0,0,1,995.55,350,121.7,121.7,0,0,0,978.5,351.38Zm-55.35,17.25a143.33,143.33,0,0,0-37.2,43.6q-4.65,8.1-13.2,24a165.91,165.91,0,0,1-14.7,22.65A429.22,429.22,0,0,1,816.25,507a167.62,167.62,0,0,1-72.76,36.55,67.62,67.62,0,0,1-2.1,7.65q8.85-4.65,35-16.8,42.45-19.65,50.55-26.5a314.34,314.34,0,0,0,28.35-27,220.09,220.09,0,0,0,21.55-27.15q25.95-46.2,40-67.6a136,136,0,0,1,18.25-22.95q-6,2.55-12,5.4Zm34.35-4.5a92.07,92.07,0,0,1,9.3-10.8,102.43,102.43,0,0,0-12.75,3.3,139.9,139.9,0,0,0-43.65,45.25q-3.9,6.45-14.7,27.3a271.23,271.23,0,0,1-16.35,27.9q-47,68.7-139.26,97.95-2,4.5-4.35,9.45,8.55-3.3,25.81-9.45a114.72,114.72,0,0,0,27.3-13.2,213.21,213.21,0,0,1,20-13.35,215.76,215.76,0,0,0,18.75-12.85q17.55-14.1,32.5-28.35a226.09,226.09,0,0,0,27.15-29.7q6.9-9.45,23.7-29.25t23.1-28.65q6.5-9.21,23.45-35.55Zm65.5,10.5q-4.05,1.8-8.1,3.9a2.68,2.68,0,0,0-.75.75Zm-16.35,13.45A202.18,202.18,0,0,0,977,432.18q-3.9,9-8.55,17.4,10.65-12.45,21.75-23.1c1.65-3.3,4.4-8,8.2-14l11.7-18a47.41,47.41,0,0,1,11.7-15c-4.85,2.6-9.85,5.5-15.15,8.55ZM989,399.18q-10.8,6.9-20,13.65a206,206,0,0,0-16.5,25.5q-7.35,13.5-20,43.35-10.65,25-18.6,39.6,14.4-18.15,30.6-40.65,4.5-8,12.3-20.85,11-18.3,15.75-28.35,12.3-26.1,13.75-28.35a23.54,23.54,0,0,1,2.7-3.9Zm-115,0a160.38,160.38,0,0,0-27.7,30.3q-7.95,11.25-22.5,33.75A247,247,0,0,1,788.25,501c-19.1,16.9-34,25.35-44.71,25.5.3,2.05.55,4,.75,5.65l18.61-8A231.83,231.83,0,0,0,804.1,500a81.28,81.28,0,0,0,19.35-20.7q7.95-13.65,12.9-20.55a186.72,186.72,0,0,0,12.9-21q8.7-15.75,12.4-21.45a107.91,107.91,0,0,1,17.7-21.3Zm-8.9,20.55q-9.36,14.25-25.75,41.55a206.32,206.32,0,0,0-12.3,21.15,74.73,74.73,0,0,1-20.4,21.15q-11.7,8.1-28.35,17.5C762.4,530,751,534.83,744.24,535.63a36.07,36.07,0,0,1-.3,4.65q6-2.25,20.56-7a154.19,154.19,0,0,0,48.9-30q32.7-30.75,42-46.8,15.95-32.55,25.75-48.45a115.15,115.15,0,0,1,29-32.45c-4.3,2.4-8.6,5-12.9,7.75A177.29,177.29,0,0,0,865.1,419.73Zm28.2,71.4q-11.25,16-31.75,49-12.45,20.7-15,24.45a212.93,212.93,0,0,1-18.6,25,244.88,244.88,0,0,1-32.25,27.75q-6.45,5-11.7,8.7,10.8-3.75,17-6.45l3.9-1.65a188.11,188.11,0,0,0,43-42.45,329.87,329.87,0,0,0,29.2-48.85q10.65-23.4,18.3-38.4Zm-50.65-63.6a112.45,112.45,0,0,1,7.45-8.85,180,180,0,0,0-13.8,14.1q-44.1,50.7-50,56.85-31.2,33-43.36,34.2a2.56,2.56,0,0,0,.3,1.15A190,190,0,0,0,791,495a187.79,187.79,0,0,0,28.8-33.3Q834.09,438.78,842.65,427.53Zm-30.45,144q-9,4.5-22.35,10.35-44.4,20-66.26,20-2.34,0-9-.45l-4.7-.3c-1.35,1.5-2.7,3-4,4.65a10,10,0,0,0,2.7,1.8,11.49,11.49,0,0,1,5.25,2.7,121.8,121.8,0,0,0,17.5.6,101.62,101.62,0,0,0,48.31-12q10.65-7.05,17.1-11.1,9.6-10.35,11.4-12.15Zm10-10q9.6-11.1,21.9-26.7l4.65-5.7a15.7,15.7,0,0,1,2-2.5q-11,8.05-25.35,17.5A478,478,0,0,1,782,572.43Q746.15,593,727.54,593a26.65,26.65,0,0,1-9.55-1.2l-5,5.85c4.2,0,10.65-.4,19.3-.6a60.34,60.34,0,0,0,12-2.25q3.3-.9,7.65-2.4A67.89,67.89,0,0,1,760.1,590a72.12,72.12,0,0,0,14.1-5q4.5-2.1,12-5.85l25-11.4a82.89,82.89,0,0,0,9.45-5c.36-.4.8-.9,1.3-1.5ZM896.6,510q17.55-38.55,27.6-57.3-3.6,3.75-7.05,7.95a277.73,277.73,0,0,0-35.85,68.05q-7.5,21.75-37.3,57.15A290.07,290.07,0,0,1,821.65,610l12-6a44.56,44.56,0,0,1,11.7-11.85,135.11,135.11,0,0,0,13.2-10.8,126.56,126.56,0,0,0,7-11.4L872,558q5.4-9.45,12.75-24.15C890.1,522.88,894,515,896.6,510Zm-41.1,21.55a437,437,0,0,1-30,39.6,397.4,397.4,0,0,1-69,63.45l13.65-4.2a274.22,274.22,0,0,0,50-42.6,287,287,0,0,0,37.2-49.35c9.55-16.3,16.9-28.6,22-37q-3,3.6-6,7.35-6.6,8-17.85,22.6Zm34.5,17.1Q904,529.48,907.55,523q4.5-7.85,10.5-21.4,6.75-15.75,9.75-21.6,11.85-29.4,19.2-43.95a100.79,100.79,0,0,1,7-12q-4,3.15-7.65,6.15l-2.7,2.55a174.88,174.88,0,0,0-21.3,33.6q-8.1,16.2-22.8,47.4-8.7,15.35-22.8,47.5-2.55,4.65-5.4,9,7.05-7.5,14.25-15.45Zm-143.66-195a381.06,381.06,0,0,1-26.8,55.45,170,170,0,0,1-25.95,31.95l-.3.45a11.57,11.57,0,0,0,.6,1.35,6.74,6.74,0,0,1,.75,2.7A19.22,19.22,0,0,1,688,460a25,25,0,0,1-5,3.6,40.61,40.61,0,0,0,12.05-4.6,34,34,0,0,0,7.95-7.8,26.83,26.83,0,0,1,4.45-5,208.06,208.06,0,0,0,18.45-35q13.2-38.31,20.4-57.6ZM558.94,405q0-3.15,5-4.2t5,3.15a4.41,4.41,0,0,1-4.05,4.5,26.8,26.8,0,0,1,.3,4.2,37.56,37.56,0,0,0,0,6,18.25,18.25,0,0,1,3.3.3,6.92,6.92,0,0,0,.3,1.8c0,.7-.7,1.35-1.95,2a10.67,10.67,0,0,1-5,1,7.17,7.17,0,0,1-6.3-2.25q-.45-2.25-.45-2.4,0-2,1.8-1.65l3.9.75h0a55.61,55.61,0,0,1,.6-9.3q-.75,0-1.65-1.8A5.55,5.55,0,0,1,558.94,405Zm34.15-8.85q0-5,4.35-4.35t4.35,3.6q0,5-2.85,5a35.16,35.16,0,0,1-.3,4.65,34.33,34.33,0,0,0,5.7.9l.45,1.2a20.56,20.56,0,0,0-1,2.1,4.39,4.39,0,0,1-3.3.9,11.83,11.83,0,0,1-7.05-2.55q-2.7-2-3-2.85a4.54,4.54,0,0,1,4.5-.9,10.39,10.39,0,0,1,.45-3l.3-.9a3.31,3.31,0,0,1-2.25-1.65c-.2-1.24-.3-1.9-.3-2Zm0,27.75q0-4.65,5.55-5t5.55,3.45a5.63,5.63,0,0,1-.75,3.45,5.45,5.45,0,0,1-3.15,1.5,16.88,16.88,0,0,1,.6,5v.6a57.91,57.91,0,0,0,6.45.45l.75,1.8a7.5,7.5,0,0,1-5,2.7,12.64,12.64,0,0,1-7.5-1.95,6.59,6.59,0,0,1-2.55-4.05l3.9.45a17.49,17.49,0,0,1-.45-4.2v-.9q-3.4-.6-3.4-3.15Zm40.8-25.8a53.63,53.63,0,0,1-3.45,4.5,45.26,45.26,0,0,1,4.65,8.4,10.9,10.9,0,0,0,.75-3.9,24.08,24.08,0,0,0-1.8-8.25,1.4,1.4,0,0,1-.15-.6ZM646.64,461q24-7.8,27.45-14,1.95-5,3.3-7.65-14.4,16.5-27.9,17.55a35,35,0,0,1-9.3,4.2h6.45Zm12.75,1.65,7.05-5a112.05,112.05,0,0,1-12,4.05,52.45,52.45,0,0,1,11.1,3.9A43.58,43.58,0,0,0,685,454.33a31.5,31.5,0,0,0,6.6-11.55q-20.4,20-31.2,20a2.44,2.44,0,0,1-1.2,0Zm-28-1.05a.51.51,0,0,1-.3,0,.51.51,0,0,0,0,.3.61.61,0,0,1,.3-.15Zm-24,12.75a328.58,328.58,0,0,0-20.8,26.1c-8.8,13.1-13.15,24.4-13,34q0,5.25-4,32.25a301.68,301.68,0,0,0-4.2,35.7,183.41,183.41,0,0,0,5.85,41.1c4,17.2,8.6,27.9,13.75,32.2q3.15-.6,6.6-1.5a18.63,18.63,0,0,1-3.45-10.8V650.83a105.94,105.94,0,0,1,1-17.25v-31.5a239.7,239.7,0,0,1,10-93.25q10-30.9,27-41.4a37.87,37.87,0,0,0-5.85,1.35Zm45-7.05a44.39,44.39,0,0,0-6.3-.75,3.63,3.63,0,0,0-2.25,1.65q-.6,1.05-3,4.5l-3.6,9.6a54.23,54.23,0,0,0-5,18.3q0,9.15-14.25,88.6-2,12.6-3.75,52.8a105.7,105.7,0,0,1-2.85,15.4q12-21.79,25-70,18.6-69.45,18.6-108.7a41.16,41.16,0,0,0-1.65-9.6,4.89,4.89,0,0,1-.95-1.65Zm6.45,5.85v16.05A258.66,258.66,0,0,1,652,538.33q-5.55,25.5-11.4,44.4-5,16.35-15.75,55.65a76.66,76.66,0,0,1-16.2,30c3.9-1.7,7.95-3.6,12.15-5.8a92.41,92.41,0,0,0,23.1-38q6.45-26.25,10.95-39a310.37,310.37,0,0,0,12.9-41.85,244.06,244.06,0,0,0,1.65-35.65q0-17.4-.6-21.6a46.39,46.39,0,0,0-4.5-15,46.07,46.07,0,0,0-5-2.55,14.46,14.46,0,0,0-2.25-.45,30.63,30.63,0,0,1,1.7,4.75Zm-19.35-6.6q-33.15,16.35-42.3,65.55a269.6,269.6,0,0,0-3.75,39.4q-.3,12.45-.75,31.95v30q-.6,5.85-.6,17.25v11.05q.6,9.45,3.15,9.45,10.65,0,13-20.5.45-23.85,1.2-30l6.75-51q6.6-49.35,7-51.55a198.13,198.13,0,0,1,16.2-51.45Zm-54.35-15.45q0-4.5,4.35-4.05t4.35,3q0,1.05-.75,6.6a9.53,9.53,0,0,1-3,.45l.3,2.1v3l3.3.45a15.32,15.32,0,0,0,2.1-1.35l2.1-1.65a17.78,17.78,0,0,1-1.2,3.9,5.59,5.59,0,0,1-5.25,2.55,14.07,14.07,0,0,1-7.45-2.4l-3-2.55,1.8-.45,4.45.9a4.7,4.7,0,0,1,0-.75,19.78,19.78,0,0,1,.45-4.2,4.35,4.35,0,0,1-2.1-2.4Q585.09,451.23,585.09,451.08Zm-28.9-13.8c0,2.8-.5,4.46-1.5,5v5.85a46.69,46.69,0,0,0,5.55.3,3.48,3.48,0,0,0,2-.6,2.75,2.75,0,0,1,1.2-.75,4.35,4.35,0,0,0-.9,4.2,22.94,22.94,0,0,1-8.25.6h-1.5a1.38,1.38,0,0,1-1.2-.75,25,25,0,0,1-2.55-1.5,23.37,23.37,0,0,1-4-3.3,4.2,4.2,0,0,1,4.2,0,5.27,5.27,0,0,0,1.5.75v-2.85a16.89,16.89,0,0,1,0-2.25,4.09,4.09,0,0,1-1.8-1.2l-.45-1.65a4.56,4.56,0,0,1,3.77-5.22l.28,0c2.33-.14,3.5,1,3.5,3.4Zm1,43.05a16.18,16.18,0,0,1-4.5.3,5.78,5.78,0,0,1-5-1.95,6.35,6.35,0,0,0-4.2-2.85l.3-.45a51,51,0,0,1,5.85,2.1l.6.3h0q.6-2.25,1.2-3.9a3.74,3.74,0,0,1-2-3.6,3.4,3.4,0,0,1,2.85-3.87,3.14,3.14,0,0,1,.75,0,3.2,3.2,0,0,1,3.6,2.74,3.1,3.1,0,0,1,0,.86q0,4.35-2.4,4.35v.7a7.15,7.15,0,0,1-.3,2,15.45,15.45,0,0,0-.45,1.65,18.09,18.09,0,0,0,4.65,0,6.73,6.73,0,0,1-1.25,1.7Zm42.4-2.7-6.75,2.25q-7.5,2.7-14.25,5.7a85,85,0,0,0-26.5,43.3,246.4,246.4,0,0,0-7,65.7,224.74,224.74,0,0,0,4.35,46.65c5,23.35,13.65,35,25.8,35.5a.51.51,0,0,0,0,.3l4.3-.45c-5-5-9.65-16.9-13.45-35.8q-5.4-38.7-5.4-38.85a303.48,303.48,0,0,1,4-36.45q4.2-28.5,4.35-32.4a73.54,73.54,0,0,1,12.25-35,92.87,92.87,0,0,1,18-20.45Zm131.2,11.85a10.5,10.5,0,0,0,.75,1.5l4.5-1.5a7.52,7.52,0,0,1-1.5,0Zm-60-14.4a44.44,44.44,0,0,1,2.4,9,218,218,0,0,1,.75,23.7,229.72,229.72,0,0,1-2,36.7q-1.65,7.95-12.9,42.9-1.65,5.25-12.3,42.75a141.48,141.48,0,0,1-10,23.55q5.85-3.75,12-7.95l4-2.7q18.9-24,26.1-64.65a509.57,509.57,0,0,0,5-83.8,30.43,30.43,0,0,0-1.2-10,18,18,0,0,0-2.25-4.05c-1.6-.8-3.26-1.7-5-2.7Zm17.55,19.65a495.72,495.72,0,0,1-6.15,88,143,143,0,0,1-19.2,52.8q8.7-6.6,16.5-13c1.2-1.5,2.5-3.16,3.9-5a71.37,71.37,0,0,0,10-20.55,90.88,90.88,0,0,0,3.15-14.4q1-9.6,1.65-14.55,3.6-24.45,4-30.75c.3-3.9.45-12.5.45-25.9a84,84,0,0,0-3.6-15q-1.95-6.75-3-10a28.21,28.21,0,0,1-8.7-2.25,52.73,52.73,0,0,1,.75,10.65Zm26.7-12.15a43.94,43.94,0,0,0-6-5.7,73.57,73.57,0,0,1,17.65,24.3,83.61,83.61,0,0,1,5.7,33.1,115.31,115.31,0,0,1-9.15,39.6v.3a12.74,12.74,0,0,1,1.1-1.8q14.35-22.2,14.35-36.9A79.57,79.57,0,0,0,715.09,480l1.25,1.8A1.5,1.5,0,0,1,715.09,482.58Zm-12.55-3.75a10.68,10.68,0,0,1-.75,5,4.65,4.65,0,0,1-4,2.4,33.58,33.58,0,0,1,8.55,17.85,172.84,172.84,0,0,1,.9,23.2,265.61,265.61,0,0,1-6,52.5,129.33,129.33,0,0,1-10.35,32.85l4.35-4.2a210.6,210.6,0,0,0,17.55-19.5,155.48,155.48,0,0,0,7.45-17.25,109.22,109.22,0,0,0,8.1-37,80.66,80.66,0,0,0-5.4-31,128.89,128.89,0,0,0-17.95-28.8,4.92,4.92,0,0,0-2.7-.45Zm37.15,25.8-2.7-.45q3,8.55,5,15.3,5.55-3.9,13.51-10,7.05-5.4,14-11.1a51.06,51.06,0,0,1-25,6.75,36.66,36.66,0,0,1-5-.5Zm1.2,125.5a2.06,2.06,0,0,1,.75-.45,63.06,63.06,0,0,1-15,1.65,52.59,52.59,0,0,1-26.8-6,17.2,17.2,0,0,1-7.35-6.45q-5.55,5-11.85,10,3,1.95,8.85,6a50.79,50.79,0,0,0,24.75,7.8h2.7a160.93,160.93,0,0,1,20-10.95Zm8.1-5q15.91-10.5,30.31-22A114.93,114.93,0,0,1,725.39,615a42.74,42.74,0,0,1-20.7-4l-2.55-1.65q-1.35,1.2-2.7,2.55L696,615.33l4.35,4.65a19.16,19.16,0,0,0,6.6,3.6,54.15,54.15,0,0,0,19.45,3.15,99.12,99.12,0,0,0,22.35-1.7Zm-13.9,15.35q8.4-2.25,18.31-5,1.65-1.8,6.3-6.3a182.24,182.24,0,0,1-22.06,10Zm12.9,4q21.16-3.6,53.71-8.4,51.9-8.85,70.3-18.75a383.18,383.18,0,0,1,54.45-25q18.3-5.7,28.2-2.7a32.1,32.1,0,0,0-3.75-2.7,199.1,199.1,0,0,0-22.65-.75q-11.1,0-66.3,21.3T795.1,629.08a39,39,0,0,1-4.05-.3q-22.2,9-37.5,14Zm-82.9-3.15,5.7,2.85a47.82,47.82,0,0,0,20.7,3.6,113.46,113.46,0,0,0,18.3-1.8,46.83,46.83,0,0,1-22.35-6.6,25,25,0,0,1-9.75-7.95Q671.54,636.43,665.09,641.38Zm54.45,20c5,2,11.3,4.75,19.3,8.25A209.74,209.74,0,0,0,777,677.28h27.3a348.22,348.22,0,0,0,47-10c18.75-4.75,32.25-8.6,40.45-11.4q5.55-1.7,45.3-17,25.65-8.25,33.45-4.5a64.5,64.5,0,0,0,.6-8.1,41.19,41.19,0,0,0-.3-5,44.4,44.4,0,0,0-3-5q-2.25-2.85-10.65-2.85a100,100,0,0,0-36.6,9.6Q897.2,633.93,889,636.63q-21.6,7.35-35.55,11.7-24.21,7.41-53.35,13.9H758.5q-51.91-7.44-58.46-9c-6.55-1.5,0,0-.3,0,6.35,2.9,13,5.3,19.65,8Zm-48.6-10.75a130.49,130.49,0,0,0-14.4-3l-3.6,2.4-4.65,3.15H649a75.9,75.9,0,0,1,29.25,4.05q7.65,2.55,27.45,11.95a271.56,271.56,0,0,0,85.46,25.51h20.55a283.81,283.81,0,0,0,85-21.16,213.64,213.64,0,0,1,24.15-9.6,119.09,119.09,0,0,1,32.7-4,19.66,19.66,0,0,1,10.8,2.5,195.61,195.61,0,0,0,5-21.55,77,77,0,0,0-10.95-.45,111,111,0,0,0-39.75,8c-15,6.9-26.5,11.8-33.9,15A303.62,303.62,0,0,1,846.9,674a321.82,321.82,0,0,1-43.2,8H776.4a294.81,294.81,0,0,1-64-17.7,278.56,278.56,0,0,0-30.3-10.45,63.59,63.59,0,0,1-11.3-3.3Zm-.75,13.65a90.42,90.42,0,0,0-24.6-9.35L640.94,658a36.12,36.12,0,0,1,16.5,5,280.69,280.69,0,0,1,29.7,21.3,268.7,268.7,0,0,0,35,24,94,94,0,0,0,33.61,11l20.85-5.85,3.45-.9q-28.35-2.4-74.36-28.21-34.44-19.54-35.6-20.1Zm10-3.65a103.22,103.22,0,0,0-31.35-7.45,77.67,77.67,0,0,1,30,10.45q10,5.7,27.6,17.25c1.2.6,10,5.5,26.5,14.71A143.66,143.66,0,0,0,791,708.79q14.4-4.5,33.3-10.95,3.15-.9,6.45-1.65-9.3,1.5-19.5,2.7h-20a243.64,243.64,0,0,1-83.51-25q-21.79-11.1-27.65-13.35Zm-15,12.75a63.39,63.39,0,0,0-29-12.9l-8.25,5a41.05,41.05,0,0,1,19.35,10q8.25,6.75,23.85,21.46,8.25,5.85,25,20a86.51,86.51,0,0,0,22.75,11.85l26.4-6.75a94.94,94.94,0,0,1-31.8-13.2,284.69,284.69,0,0,0-24.25-17.26q-2.6-1.55-23.9-18.3ZM726.09,650c-5,1-9.45,1.8-13.9,2.4,4.55.5,11.15,1.35,20,2.55,16.6,2.15,25.41,3.3,26.41,3.3h42.3a623.29,623.29,0,0,0,86.2-26.1,660.41,660.41,0,0,1,65.25-22.8v-.45a33.41,33.41,0,0,1,16.35,2.85,58.53,58.53,0,0,0-3.75-9q-.9-1.8-1.8-3.3a5.5,5.5,0,0,0-2.7-2.25,13,13,0,0,0-8.85-3.3q-15.6,0-50,15-32.55,15.45-35,16.35c-5.9,2.4-20.35,7.15-43.45,14.25a353,353,0,0,1-49.35,7.65q-33.15,3.6-39.16,3.6a47.16,47.16,0,0,1-6.15-.65Zm-65-5.4-.45-.45a1.48,1.48,0,0,0-.75.6,5.25,5.25,0,0,1,1.3.25Zm-85.65,37.45a20,20,0,0,1,5.55,9.16,90.23,90.23,0,0,1,3.3,18.6,160.09,160.09,0,0,1,2.55,18,22.83,22.83,0,0,0,3.45,7.95q5,1.2,11,2.1a27.59,27.59,0,0,1-2.85-5.4,52.88,52.88,0,0,1-3-12q-.6-5.7-.6-6-1.65-12.15-3.15-18.75A34.12,34.12,0,0,0,585.19,681a66.3,66.3,0,0,1-9.65,1.25Zm21.6-3.9a25,25,0,0,1,9.45,11.25q2.85,6.32,7.2,18.91,2.85,6,7.65,18.6a63.46,63.46,0,0,0,8.4,13.65h14.1a41.14,41.14,0,0,1-6.45-9.3q-6.3-16.95-7.65-19.35-8.4-16.5-9.45-18a52.69,52.69,0,0,0-19.35-17.11ZM590.09,680a27.12,27.12,0,0,1,5,10.5,115.25,115.25,0,0,1,3.6,20.86,190.22,190.22,0,0,1,5,20.4,27.06,27.06,0,0,0,4.5,7.2q8.1.9,17.1,1.5a147.75,147.75,0,0,1-12-23q-12.9-29.25-21-38Zm-37.9,0h0a7,7,0,0,1-3.6-1q-1.71-.45-3.45-.75a94.93,94.93,0,0,1,8.25,11.4q11.7,19.22,11.7,27.76a33.33,33.33,0,0,1-.9,10v.3A36.07,36.07,0,0,0,576.94,701c0-7.2-7.25-13.76-21.6-19.66Zm16.5,2.1q2.4,1.5,4.35,3a32.36,32.36,0,0,0-2.25-2.85,12.81,12.81,0,0,1-1.95-.15Zm11.55,26.26a44.75,44.75,0,0,1-3.75,8.25,64.92,64.92,0,0,1-8.1,11.7c1,.3,6.2,2.35,15.7,6.15a40.33,40.33,0,0,1-1.45-4.35,96.88,96.88,0,0,1-2-16.35,45,45,0,0,0-.25-5.4ZM604,676.13a25,25,0,0,1,17.1,11.55,166.68,166.68,0,0,1,12,20.86,75,75,0,0,1,8.7,20.25,31.83,31.83,0,0,0,9.45,11.85q11-.9,25-3.15A198.43,198.43,0,0,1,650,712.14q-27.75-30.46-37.65-39.46Zm10.8-4.35a61.4,61.4,0,0,1,16.8,11.1,81.17,81.17,0,0,1,17.85,20.41q.45.45,15.75,20a46.41,46.41,0,0,0,16.65,13.35q12.9-2.25,28.2-5.85-14-6-44.1-30-32.85-27.46-41.1-33.91-5.1,2.65-9.8,4.9ZM652.49,749q-6,2.25-20,6.6a118.19,118.19,0,0,1-21,5q-4.5,0-7.5-.3l1,.75a46.86,46.86,0,0,0,21.45,3.75,57,57,0,0,0,23.25-6.75,189.41,189.41,0,0,0,17.1-9.15q3-1.5,6-2.7l-20.55,2.7Zm-46,2.25h-6.3a38,38,0,0,1-8.7-.9l2.85,2.25a5.92,5.92,0,0,1,4.2,2,5.45,5.45,0,0,0,3.9,1.8,58.53,58.53,0,0,0,27.7-6.35.39.39,0,0,1,.3,0h-12.6l-5.85-.6a10.78,10.78,0,0,1-5.35,1.85Zm21.75,23.55q2.7,0,7.5.45,13.2,0,37.95-13.95,23.1-14.55,25-15.6l10.8-5.7-14.25,2.7a252.73,252.73,0,0,0-31.8,13.2q-27.9,13.5-37,13.5a48.77,48.77,0,0,1-11.1-1.2,111.33,111.33,0,0,0,13.1,6.8Zm31.2,10.35a69.26,69.26,0,0,0,31.2-10,168.27,168.27,0,0,1,23.1-18.75,59.73,59.73,0,0,0,11.55-9.6c4-4.5,7.1-7.75,9.1-9.75l3.6-3.15q-5,1.35-10.35,2.55a230.49,230.49,0,0,0-25.9,12.9q-50,30-57.6,30h-5.4A163.34,163.34,0,0,0,659.54,785ZM586,746.34a18.09,18.09,0,0,0,7.2,1.65q1.05,0,5.4-.45c-5.8-1-10.75-1.95-15-2.85Zm171.71,3.6q-20,18.3-25,22.2a129.88,129.88,0,0,1-18.25,12.3c3.25-.5,6.55-1.1,10-1.8A645.23,645.23,0,0,0,779,734a191.33,191.33,0,0,1,20.25-17.25q-6,1.5-11.85,3.15a59.47,59.47,0,0,0-10.5,8.4q-6.51,6.69-19,21.7Zm15-25.5.6-.6q-6.45,1.8-12.75,3.75-3.75,1.2-7.65,2.25a77.7,77.7,0,0,0-14.41,10.5L719,758.49l-17,15.45a72.68,72.68,0,0,1-26,13l18.45-.3a151,151,0,0,0,31-16.2,197.45,197.45,0,0,0,28.36-22.2,250.73,250.73,0,0,1,18.9-23.85Zm-26,52.65q2.7-2.85,16.51-14.25,23.55-19.35,33.3-28.05a186.82,186.82,0,0,1,20.85-22.35,10.63,10.63,0,0,0-2,.45,251.17,251.17,0,0,0-47.7,39.6,338.85,338.85,0,0,1-26.11,24.15l-4.2,3.15Zm36.91-15a245,245,0,0,1,38.1-35,46.5,46.5,0,0,0,9.45-9.45,70.52,70.52,0,0,1,9.15-10h0l-7.65,1.65a49.61,49.61,0,0,0-14.4,8.7,182,182,0,0,0-20,21.9q-6,5.55-22.2,21.15a127.41,127.41,0,0,1-15,11.7q5.85-2.4,11.7-5,4.7-2.7,10.85-5.8ZM927.05,581.23a154.46,154.46,0,0,0-50,11.4q-14.55,5.4-59.65,25-3.6,1.65-7.2,3.15A550.61,550.61,0,0,0,867,602.93q4.05-1.5,17.1-7.95a152.35,152.35,0,0,1,20.4-8.85,67.21,67.21,0,0,1,44.7,0,44.3,44.3,0,0,0-22.15-5Zm35.7,86.2a20.53,20.53,0,0,1-4.5-3.6,269.72,269.72,0,0,0-72,17.4,203.92,203.92,0,0,1-28,9.3q19-3.3,42.9-5.85a67.69,67.69,0,0,1,41.1,6.76,47.42,47.42,0,0,1,11.55,7.95h0q0-1.2,8.55-30.46a5.33,5.33,0,0,1,.45-1.65Zm-51.6,25h1.2a31.69,31.69,0,0,1,4.35.3v-1.2a.88.88,0,0,0,0,.6Zm-77.35,29.1a56.83,56.83,0,0,1-9.45,9.15q-3,2.25-20.85,18.3-2.7,2.55-5.25,4.65,10.5-6.3,23.55-15a610.32,610.32,0,0,1,54.4-36.45.39.39,0,0,1,.3,0q-23.55,1.65-34.15,10.5a72.86,72.86,0,0,0-8.55,8.75Zm48.25-22.2-8.7,1.5,4.5.6a40,40,0,0,1,4.2-2.2Z"></path>
    </g>
  </g>
</svg>
